<svg xmlns="http://www.w3.org/2000/svg" viewBox="0 0 227 202"><path d="m100.728 192.205c-24.2589-3.089-50.3444-12.599-67.6001-29.927-9.3491-9.388-15.1279-22.335-15.1279-36.631 0-39.8603 41.2621-86.647 81.1223-86.647 5.5007 0 10.7807.9424 15.6887 2.6746 23.638 8.3434 42.366 30.7386 53.975 52.9562 4.848 9.2782 7.589 19.8322 7.589 31.0252 0 37.052-30.037 67.089-67.089 67.089-2.899 0-5.756-.184-8.558-.54z" fill="#fcf5ff"></path><g fill="#819d86"><path d="m79.481 186.2568c.2749-.0225.4795-.2646.4565-.5391-.0229-.2754-.2583-.4746-.5396-.457-2.0723.1738-4.6025-.1348-7.5186-.9131-1.9507-.5166-3.7437-1.4072-5.3291-2.6484-1.5869-1.2412-2.8823-2.7676-3.8472-4.5283-1.1743-2.2422-2.1064-4.6152-2.7725-7.0615-2.4721-8.6085-3.115-17.6849-3.4261-26.642 5.0216-3.2959 12.832-6.0891 21.8665-9.317 5.3206-1.9007 10.8105-3.877 16.3764-6.1626-.0117.0095-.0229.0193-.0346.0288-.6948.5635-1.3906 1.1289-2.0708 1.71-4.188 3.5557-7.8301 7.6963-10.8252 12.3057-.1504.2314-.0845.541.147.6914.084.0547.1787.0811.272.0811.1636 0 .3237-.0801.4199-.2275 2.9419-4.5283 6.5195-8.5957 10.6348-12.0898.6748-.5762 1.3643-1.1357 2.0527-1.6943.8403-.6826 1.6797-1.3652 2.4883-2.0713 4.7271-4.0781 8.6768-9.041 12.4966-13.8398 3.6636-4.6025 7.4512-9.3623 11.9014-13.3013.207-.1831.2266-.499.043-.7061-.1836-.208-.501-.2256-.7051-.043-4.5156 3.9966-8.3315 8.7905-12.0215 13.4272-3.5404 4.4487-7.2018 9.0282-11.4639 12.8895-.0411-.5816-.0372-1.16.0029-1.735.0488-.0728.0858-.1536.0889-.2462.0029-.0825-.0192-.1579-.0521-.2277.4266-4.0441 2.6552-7.8632 4.702-10.8963.4404-.6523.8921-1.3037 1.3452-1.9561 2.4878-3.5869 5.0605-7.2949 5.9668-11.6162.1904-.8765.3076-1.7705.4209-2.6348.1338-1.021.272-2.0762.5312-3.0732.312-1.2007 1.1133-3.355 2.9775-4.2983 1.9414-.9868 2.6172-.3228 4.2461 1.2798.1934.1899.3965.3892.6123.5962 2.0186 1.9316 14.9629 11.6523 19.2334 13.4048 4.6914 1.9297 10.5264 4.334 16.2852 3.5518.709-.0576 1.4141-.2764 2.0674-.6494.9346-.6191 1.4189-1.6562 1.834-2.6611l.2471-.582c.9072-2.1304 1.4336-4.3818 1.5674-6.7197v-.332c.1816-6.3174-.2471-12.9839-.6621-19.4307-.5332-8.2866-1.084-16.855-.3633-24.8716.0004-.004-.0015-.0075-.0013-.0115 1.1297-2.176 1.8167-4.8151 2.0433-7.8825.1709-2.3057.0859-4.6431.0039-6.9033-.042-1.1709-.085-2.3418-.0928-3.5112-.0078-1.2876.0742-2.5977.1533-3.8647.0859-1.375.1748-2.7964.1514-4.2085-.0723-4.0781-1.4023-4.395-1.8076-4.395-.2764 0-.5293.2212-.5293.4976 0 .2759.1953.4976.4717.4976.0078.0024.8105.3164.8652 3.417.0234 1.3721-.0645 2.7734-.1494 4.1289-.0801 1.2837-.1631 2.6113-.1553 3.9336.0088 1.1797.0508 2.3604.0938 3.541.0811 2.2334.1641 4.5425-.0029 6.7935-.29 3.9253-1.3525 7.0972-3.1602 9.4282-.1689.2183-.1289.5322.0889.7012.0918.0708.1992.105.3066.105.1484 0 .2969-.0664.3955-.1938.069-.0891.1294-.1876.1964-.2789-.4965 7.5391.0001 15.4585.494 23.1417.4131 6.4243.8408 13.0674.6602 19.3525l.001.3174c-.126 2.1938-.627 4.3325-1.4883 6.3579l-.249.5869c-.3574.8652-.7656 1.75-1.4355 2.1953-.499.2842-1.0605.458-1.6523.5078-5.5146.7402-11.2168-1.5986-15.7969-3.4834-4.0723-1.6714-16.9795-11.3438-18.9219-13.2026-.2129-.2036-.4121-.3999-.6025-.5864-1.6357-1.6084-2.8184-2.77-5.3994-1.459-1.2247.6198-2.2253 1.7548-2.909 3.2687-1.4978-9.4272-3.3105-19.8805-7.505-29.6606.7148.1899 1.4464.3295 2.1884.3695.9375.0542 1.8662-.0396 2.7651-.1304.4731-.0474.9453-.0952 1.416-.1206 5.0366-.2842 10.3608 1.9741 14.6021 6.1655 3.8076 3.7642 6.0244 7.1299 8.1797 12.4194.0791.1943.2656.3115.4629.3115.0635 0 .127-.0117.1885-.0371.0925-.0376.1599-.1046.2131-.1807 2.5908 2.2637 6.7435 5.4136 11.2725 6.973-.4315 1.8831-.7347 3.7989-.6292 5.7341.0146.2661.2354.4727.499.4727.0088 0 .0176 0 .0273-.001.2754-.0146.4873-.2505.4717-.5264-.1514-2.7778.6035-5.5947 1.332-8.3184.2266-.8447.4521-1.6885.6533-2.5322 1.8525-7.7778 1.8135-16.6079-.1182-27.7598-.1367-1.1841-.4814-2.3232-1.04-3.4106-.4727-.8047-1.1299-1.4453-1.7656-2.0654-.3447-.3354-.6895-.6709-.9902-1.0181-.7725-.9673-1.4355-2.0234-1.9785-3.1558-1.8965-3.6084-3.7803-7.2241-5.6504-10.8525-.2793-.5229-.4033-1.103-.2998-1.4116.0264-.0771.0635-.1313.1201-.1719.3906-.0317 1.9873-.0996 2.8115.8208.8271.9194 1.3535 2.0557 1.9111 3.2588.2764.5967.5625 1.2134.8711 1.7676.2559.5513.6387 1.0493 1.1133 1.4453.2939.2373.6641.3745 1.041.3862.4023.0137.7549-.104 1.0996-.3525.585-.5083.585-1.3359.585-1.7803 0-4.8379-1.0078-9.6387-1.9834-14.2817-.3486-1.6631-.6982-3.3276-1.0039-4.998-.1494-.812-.1377-2.9907.7744-3.3179.1377-.0479.4932-.0034.8555.25.2881.2026.7705.6802.7793 1.6973.0781.4028 1.9141 9.8794 2.457 11.7075.1602.5635 1.2324.7363 1.2432.7383.6299.0928.9121-.1821 1.0479-.3989.2344-.4678.3291-.9912.2783-1.4697l-.1934-12.1118c0-.812.0693-1.6025.54-1.8682.1016-.0479.2129-.0732.3262-.0737.0635.0015.2217.0229.3262.0718.1016.0474.1924.1177.2627.2021.0713.0874.124.1909.1523.2998.0693.2666.3398.4277.6104.3579.2676-.0693.4277-.3428.3584-.6099-.0654-.2485-.1855-.4849-.3506-.6851-.165-.1992-.377-.3623-.6104-.4707-.2354-.1104-.4854-.166-.7441-.166-.2646.0024-.5244.0586-.79.1865-1.0811.6055-1.0811 2.0576-1.0811 2.7632l.1963 12.1636c.0303.2949-.0146.5903-.1104.8291-.1465-.0078-.4004-.0879-.5371-.1616-.5752-2.0732-2.3809-11.396-2.3906-11.3989 0-1.0039-.4355-1.8857-1.1953-2.4204-.5762-.4058-1.2715-.5508-1.7686-.3735-1.7119.6143-1.5967 3.4834-1.4209 4.4399.3076 1.6787.6592 3.3516 1.0098 5.0229.9648 4.5928 1.9619 9.3418 1.9619 14.0762 0 .4238-.0293.8413-.2041.9961-.1299.0928-.2852.1489-.4492.1367-.1611-.0049-.3184-.063-.4375-.1597-.3555-.2964-.6465-.6743-.8564-1.125-.3086-.5542-.5859-1.1548-.8555-1.7349-.5635-1.2173-1.1475-2.4756-2.0732-3.5063-1.292-1.4434-3.6709-1.1489-3.7725-1.1357-.0498.0063-.0986.0205-.1445.042-.3418.1582-.5869.4331-.708.7954-.29.8657.208 1.9033.3633 2.1938 1.8682 3.6245 3.752 7.2422 5.6416 10.8359.5674 1.1841 1.2705 2.3052 2.1035 3.3462.3311.3838.6953.7402 1.0605 1.0957.6162.6001 1.1973 1.167 1.5879 1.8306.4893.9551.7998 1.979.9268 3.0718 1.9121 11.042 1.9551 19.7441.1348 27.3857-.1992.8345-.4229 1.6694-.6465 2.5049-.1696.634-.3394 1.2736-.5006 1.9167-5.0529-1.7668-9.6581-5.6003-11.9672-7.7502-.0124-.0115-.0283-.0153-.0415-.0253-2.0451-4.6821-4.2551-7.8978-7.8394-11.4406-4.4404-4.3892-10.0352-6.7378-15.3594-6.4536-.4858.0269-.9731.0757-1.4619.1245-.8608.0874-1.75.1777-2.6099.127-2.1875-.1177-4.3882-1.1543-6.1567-1.9868-1.8418-.8677-3.9297-1.8511-5.0312-3.6338-.7949-1.3047-1.0215-2.8784-1.2173-4.6519-.3606-3.2378-.7155-6.5389-.6702-9.8132l3.5862-.3201c1.1494-.2207 2.249-.6255 3.2236-1.1816 1.3242-.5859 2.5586-1.3564 3.6865-2.3062 1.2578-1.167 1.9551-2.646 1.9141-4.0591-.0288-.9248-.354-1.7671-.6685-2.5815-.125-.3228-.25-.6455-.3545-.9722-.2798-.875.4351-2.4927 1.2139-3.249.0339-.033.0543-.0732.0768-.1122 1.438 1.0373 3.1773 1.6512 4.8011 1.6512.4917 0 .9731-.0562 1.4316-.1738 2.0396-.5229 3.2393-2.1191 3.3828-4.4976.2441-.7896 1.6875-5.5503 1.4072-7.1924-.2725-1.5347-1.0615-2.9546-2.2129-3.9917-.6582-.6172-1.4678-1.0601-2.3599-1.2842-1.3242-.2812-2.6509.0723-3.8052.4302-1.0532.3672-2.1514.5132-3.2651.4282-1.1138-.083-2.1797-.3877-3.168-.9067-.072-.0376-.1483-.0506-.2243-.0517-.4308-.8168-.91-1.6093-1.4642-2.3585-2.8655-3.9239-9.0754-7.0284-14.4436-7.2208-4.2339-.1689-16.313.8018-21.2231 7.2109-.168.2192-.1265.5332.0928.7012.2202.168.5337.127.7012-.0928 4.6284-6.042 16.5723-6.9673 20.3916-6.8203 5.0933.1831 10.9717 3.1108 13.6758 6.8135 1.2495 1.689 2.1724 3.5688 2.7437 5.5869.062.2202.2627.3638.4805.3638.0454 0 .0913-.0059.1367-.019.2656-.0752.4199-.3516.3447-.6172-.2146-.7585-.4927-1.4907-.8-2.2095.8556.34 1.754.5479 2.6823.6168 1.249.0942 2.4839-.0684 3.6519-.4756 1.0171-.3149 2.1963-.6313 3.2671-.4058.7095.1782 1.3667.5376 1.9087 1.0464.9941.8955 1.6709 2.1138 1.9043 3.4268.21 1.2295-.9355 5.3125-1.395 6.7817-.0127.04-.02.0815-.0225.1235-.1025 1.9683-1.0137 3.2285-2.6357 3.6445-2.4585.6299-5.8135-.9043-7.3257-3.3496-.1455-.2354-.4531-.3071-.6885-.1621-.2349.1455-.3071.4536-.1621.6885.3885.6279.8807 1.1955 1.4366 1.6979-.0057.0051-.0131.0067-.0186.012-.9067.8804-1.9214 2.855-1.4688 4.2705.1104.3452.2417.6865.3735 1.0278.2979.77.5786 1.4976.6016 2.251.0332 1.124-.5479 2.3257-1.5757 3.2798-1.0376.873-2.1914 1.5933-3.4736 2.1636-.9243.5244-1.9209.8916-2.9131 1.0845l-3.4264.3037c.0831-2.0217.3335-4.0298.8652-6.0015.0718-.2666-.0859-.541-.3525-.6133-.2666-.0737-.5415.0854-.6133.3525-1.5283 5.668-.8462 11.79-.2451 17.1909.2017 1.8247.457 3.5845 1.3594 5.0649.8578 1.3884 2.2123 2.3348 3.58 3.0789-.0005.0411-.0052.0819.0049.1237.9209 3.7695 1.8726 7.6675 2.2578 11.6211.4248 4.3633.0703 8.2568-1.0591 11.5918-.1426.4829-.3608.9385-.6265 1.3242-.3442.4238-.7622.771-1.2588 1.041-3.5869 2.1343-8.583 2-13.0381-.3511-4.2681-2.2524-7.4961-6.0312-10.0947-9.4365-.75-.9546-1.459-1.9619-2.1045-2.9897-2.8319-4.6199-3.8644-10.2792-4.7719-15.278 1.0848-.4894 2.0947-1.0138 2.9833-1.5917 2.1943-1.4243 2.1147-3.2188 2.0137-5.4907-.0229-.5157-.0471-1.0707-.0482-1.6662 5.5777-2.124 12.4652-7.2627 13.2542-10.4202.0674-.2676-.0957-.5391-.3638-.606-.2695-.0688-.5396.0957-.606.3638-.8623 3.4478-10.8535 10.083-15.9912 10.6011-.813.1401-1.6401.1606-2.4263.064-1.269-.25-1.585-2.4146-1.8384-4.1538-.1831-1.2534-.3149-2.1587-.7695-2.5928-1.2373-1.1777-1.1494-2.1782-1.0557-3.2378.0396-.4487.0767-.8726.0078-1.2988-.1421-.8911-.7515-1.6475-1.3408-2.3784-.606-.7524-1.1787-1.4624-1.1338-2.1416.0371-.1416.3442-.6113.5903-.9888.6548-1.0029 1.4697-2.251 1.5825-3.3188.0923-.8818-.3115-2.9258-.6367-4.5684-.1255-.6348-.2339-1.1807-.2812-1.5103-.25-1.7314 1.709-6.8833 3.1582-9.7822.1235-.2471.0234-.5474-.2236-.6709-.2476-.123-.5479-.0234-.6709.2236-1.1548 2.3101-3.5771 8.1284-3.2534 10.3726.0493.3408.1606.9053.29 1.5615.2788 1.4087.6997 3.5381.6235 4.269-.0879.8276-.8608 2.0122-1.4258 2.877-.5034.7715-.7266 1.1255-.7466 1.437-.0757 1.0996.6484 1.9985 1.3486 2.8677.5308.6582 1.0317 1.2803 1.1323 1.9102.0493.3032.0171.667-.0166 1.0518-.0947 1.0723-.2241 2.54 1.3618 4.0498.2046.1953.3579 1.2456.4697 2.0127.2993 2.0513.6714 4.604 2.6699 4.9966.3882.0483.7773.0718 1.1636.0718.5283 0 1.0508-.0444 1.5557-.1323.7816-.0786 1.6566-.2889 2.578-.5862.0076.4802.0242.9407.0431 1.368.0967 2.1792.1553 3.4946-1.5596 4.6079-3.1968 2.0781-8.0474 3.5107-12.7388 4.8955-4.0981 1.21-7.9697 2.353-10.6899 3.8813-7.3799 4.1509-7.8823 14.1572-8.2856 22.1973l-.0322.6333c-.1772 3.4897-.063 7.0332.0479 10.4604.147 4.5591.2988 9.2739-.2432 13.853-.3979 3.3594-1.1777 6.7266-1.9316 9.9814-.5835 2.5186-1.1865 5.1221-1.6138 7.7217-1.1797 7.1553-.9907 14.5459-.8076 21.6934.2046 7.9775.4155 16.2256-1.2974 24.0898-.8662.5566-6.7314 1.2354-9.9146 1.6035-1.3149.1523-2.4653.2861-3.2271.3945-5.96.8525-7.9136 1.5654-11.46 2.8604l-1.0205.3711c-.2554.0928-.6104.1992-1.0103.3193-1.9839.5957-3.5298 1.1211-3.8682 1.9668-.1182.2393-.1611.5049-.1167.8154.0728.3096.356.8271 1.4355.8271h9.4546c.2764 0 .5-.2236.5-.5s-.2236-.5-.5-.5h-9.4541c-.3247 0-.4448-.0674-.4556-.0312-.0039-.0586.0093-.1201.0488-.2031.2031-.5039 2.334-1.1436 3.2437-1.417.4214-.127.7959-.2393 1.0645-.3379l1.0215-.3711c3.4834-1.2715 5.4023-1.9717 11.2588-2.8096.7554-.1084 1.896-.2402 3.2007-.3906 9.0713-1.0498 10.5771-1.4697 10.7524-2.2754 1.7646-8.0137 1.5508-16.3633 1.3442-24.4375-.1821-7.1006-.3701-14.4434.7939-21.5059.4224-2.5674 1.022-5.1553 1.6016-7.6582.7603-3.2812 1.5459-6.6748 1.9507-10.0898.5508-4.6543.3975-9.4062.249-14.0024-.1094-3.4067-.2231-6.9292-.0479-10.3774l.0317-.6343c.3911-7.7944.8779-17.4951 7.7773-21.375 2.6216-1.4731 6.4404-2.6006 10.4829-3.7944 1.1427-.3373 2.2941-.6781 3.431-1.03.1068 1.1534.3177 2.5823.5245 3.9714.209 1.4028.4248 2.8535.5254 3.9902.2222 1.9214.2891 3.877.2002 5.7988-.2261 3.0967-1.2725 6.1196-2.2358 8.7104-2.4129 6.5072-5.3376 12.8781-8.6703 18.974-.0206-.9182-.0264-1.835-.0298-2.7426-.0161-4.0596-.0322-8.2573-1.5654-12.1079-.1021-.2563-.394-.3818-.6494-.2793-.2563.1021-.3818.3926-.2793.6494 1.4624 3.6738 1.4775 7.5928 1.4941 11.7417.0117 3.1133.0244 6.3325.7148 9.4106.4008 1.7876 1.0302 3.5172 1.6859 5.2015-.0002.003-.0022.0055-.0023.0085-.9365 19.3652-5.4551 38.5596-9.8252 57.123-.1958.8428-.3789 1.6914-.5625 2.5391-.6074 2.8105-1.2354 5.7168-2.3335 8.3867-.6489 1.5508-4.0811 2.1104-5.3555 2.1953-4.6763.2197-9.5112.4473-14.2275 1.1729l-.3052.0469c-1.5708.2412-3.1943.4893-4.6836.0195-.083-.0176-.1582-.0605-.1919-.0957-.02-.0254-.0181-.1973.1675-.4961.3804-.6113 2.3101-.958 3.5874-1.1875.7773-.1396 1.4492-.2607 1.9097-.4258.2598-.0938.3945-.3799.3013-.6396-.0942-.2598-.3799-.3936-.6401-.3018-.3809.1377-1.0449.2568-1.7476.3828-1.7085.3066-3.6445.6543-4.2603 1.6445-.5347.8604-.2954 1.3965-.0806 1.6689.2002.2197.4595.3682.7007.416.7026.2236 1.4189.3047 2.1392.3047.9854 0 1.9775-.1523 2.9502-.3018l.3047-.0469c4.6646-.7178 9.4731-.9434 14.1484-1.1631.5298-.0352 5.2031-.4111 6.207-2.8096 1.1333-2.7549 1.7705-5.7061 2.3872-8.5586.1821-.8438.3643-1.6865.5586-2.5234 4.2181-17.9183 8.5651-36.426 9.722-55.1475.5106 1.3082 1.007 2.6452 1.3849 3.9942.9619 3.4209 1.1978 7.0342 1.3564 10.4434.1396 3.0312.2222 6.1299.3027 9.127.2905 10.8711.5913 22.1123 3.6348 32.71.6826 2.5098 1.6416 4.9512 2.854 7.2656 1.0347 1.8887 2.418 3.5176 4.1123 4.8428 1.6929 1.3252 3.6069 2.2764 5.6885 2.8281 2.4731.6602 4.6914.9922 6.6147.9922.4295.0002.8445-.0164 1.244-.0496zm16.4697-59.8379c-6.0874 2.5635-12.1006 4.7119-17.916 6.79-8.7988 3.1439-16.4415 5.8782-21.5684 9.097-.0497-1.5604-.0924-3.1169-.1338-4.6654-.0806-3.001-.1636-6.1055-.3032-9.1465-.0093-.1986-.0202-.4001-.0301-.6001l12.3563-1.9897c3.0273-.4883 6.1577-.9941 9.2915-1.3799 6.4216-.7906 12.9523-1.0822 19.4223-.884-.0372.7734-.0159 1.5544.088 2.3419-.2144.1871-.4403.364-.6582.5478-.14-.1409-.3559-.1922-.5484-.1111zm-43.1485-13.7421c-.7944-2.0078-1.6162-4.084-2.0918-6.2051-.3419-1.525-.5103-3.1003-.5961-4.6859.0947-.0425.18-.1048.2343-.2023 3.6055-6.4619 6.7373-13.2554 9.3091-20.1909.9868-2.6548 2.0601-5.7578 2.2964-8.999.0923-1.9888.0234-3.9985-.2036-5.96-.1021-1.1528-.3198-2.6187-.5308-4.0361-.2114-1.4185-.4297-2.8857-.5298-4.0273-.0032-.0362-.019-.0667-.0292-.1 1.6357-.5218 3.2203-1.0754 4.6885-1.6858.9141 5.0298 1.9752 10.6857 4.8651 15.3995.6665 1.0625 1.396 2.0991 2.1636 3.0752 2.6606 3.4858 5.979 7.3652 10.4185 9.709 2.4946 1.3159 5.1562 1.9771 7.6816 1.9771 2.2949 0 4.4766-.5459 6.3179-1.6416.5947-.3232 1.1133-.7539 1.5635-1.3105.3491-.5034.6133-1.0557.7803-1.6216 1.1694-3.4512 1.54-7.4854 1.1011-11.9907-.3677-3.7793-1.2384-7.4733-2.1121-11.0596.2491.1203.4942.2358.7317.3477.93.438 1.9747.9294 3.0865 1.3263 4.6537 10.4828 6.4548 21.873 8.0433 31.9281.0089.0563.029.1077.0543.1553-.2178.9409-.3573 1.8972-.4796 2.8276-.1104.8438-.2246 1.7168-.4072 2.5557-.808 3.8542-3.0546 7.2672-5.3282 10.5566-.0928-.0098-.1879-.0025-.2772.044-2.6172 1.3291-5.5479 1.9346-8.4795 1.7627-.2705-.0186-.5117.1924-.5288.4688-.0166.2764.1934.5127.4692.5293.3501.0215.6997.0312 1.0493.0312 2.3162 0 4.6105-.465 6.7473-1.3558-.2729.395-.5482.7898-.8151 1.1859-2.0849 3.0892-4.3458 6.976-4.8423 11.1569-6.5375-.1988-13.1377.0916-19.6274.8909-3.1528.3877-6.2925.8945-9.3286 1.3857l-12.2506 1.9728c-.1296-2.267-.3397-4.597-.7984-6.8949.0458-.08.0776-.1686.0729-.2673-.0498-1.0166-.0996-1.9229-.1494-2.8301-.0488-.8965-.0981-1.7949-.1475-2.8027-.0137-.2764-.2568-.5107-.5239-.4746-.2759.0127-.4883.248-.4751.5234.03.6133.0601 1.1819.0901 1.7385-.38-1.0882-.7981-2.1596-1.2123-3.2064z"></path><path d="m88.7021 45.2651-3.2231 20.04c-.0439.2725.1416.5288.4146.5728.0269.0044.0532.0063.0796.0063.2412 0 .4536-.1748.4932-.4209l3.2231-20.0391c.0439-.2729-.1416-.5293-.4141-.5732-.2754-.0444-.5298.1412-.5733.4141z"></path><path d="m78.0239 52.5298c-.5562-.4028-1.186-.8589-2.7275-2.0767-.2168-.1699-.5303-.1338-.7026.0825-.1709.2168-.1343.5312.0825.7026 1.5581 1.2305 2.2251 1.7134 2.7612 2.1016.3706.2681.6943.5024 1.1968.895.5903.543 1.2163 1.0562 1.8599 1.5254.0889.0649.1919.0962.2939.0962.1543 0 .3066-.0713.4043-.2056.1631-.2227.1138-.5356-.1094-.6982-.6128-.4473-1.209-.9365-1.8018-1.479-.5454-.4287-.8774-.6689-1.2573-.9438z"></path><path d="m116.9502 75.7495c-1.7578 2.2222-3.0112 4.7402-3.7271 7.4844-.0698.2671.0903.54.3579.6099.042.0107.0845.0161.1265.0161.2217 0 .4243-.1489.4829-.374.6807-2.6089 1.873-5.0029 3.5449-7.1162.1709-.2163.1338-.5308-.082-.7021-.2158-.171-.5312-.1354-.7031.0819z"></path><path d="m150.9434 28.271c.0361.4062.167.8066.3848 1.1641.1455.23.3555.4058.6064.5083.2529.1025.5244.1235.834.0498.4424-.1489.9473-.5977.8477-1.8794-.1562-2.9263-.1289-5.8916.083-8.8599-.0107-.5298.0996-1.0635.3145-1.5347.083-.1714.2236-.3135.3936-.3984.1768-.0874.374-.1113.5107-.0879.3779.1162.5938.6577.6416 1.6094.1787 3.7441.3359 7.5864.4668 11.4028 0 .813.4062 1.0786.6494 1.1646.0596.021.1221.0312.1846.0312.208 0 .4111-.1147.4824-.3149.0918-.2603-.0156-.5264-.2764-.6187-.0107-.0176-.04-.0991-.04-.2793-.1309-3.8379-.2891-7.6846-.4688-11.4346-.0264-.5278-.1055-2.1353-1.3955-2.5293-.4023-.0796-.8291-.022-1.2002.1611-.3691.1846-.6699.4897-.8535.8687-.2812.6162-.4229 1.3013-.4082 1.9341-.2129 2.9639-.2412 5.9712-.0811 8.9512.042.5449-.0547.8276-.123.853-.0615.0122-.126.0078-.1826-.0146-.0586-.0234-.1064-.064-.1357-.1094-.1338-.2197-.2158-.4707-.2383-.7251-.0244-.2754-.2803-.4873-.542-.4541-.2746.0239-.4787.2666-.4542.542z"></path><path d="m226.1455 170.665c-.0117-.0381-.0283-.0742-.0488-.1084-.1357-.2275-.3135-.416-.5254-.5596-.2119-.1465-.457-.2471-.6523-.2773-1.127-.3428-2.2988-.4863-3.4727-.4365l-3.5654-.5732c-2.9365-.4912-5.8916-2.168-8.748-3.7891-1.5957-.9053-3.2461-1.8408-4.8398-2.5322-7.251-3.1494-13.1973-5.958-18.2227-10.9873-1.8184-1.8047-3.5107-3.7637-5.0293-5.8223-1.4219-1.9404-2.7051-4.0371-3.9453-6.0654l-18.8682-30.9648c-.1436-.2373-.4531-.3125-.6865-.167-.2363.1436-.3105.4512-.167.6865l18.8682 30.9678c1.252 2.0449 2.5459 4.1592 3.9932 6.1357.4767.6462.9755 1.2786 1.4842 1.9037-1.1016.6228-1.9058 1.4097-2.7531 2.3103-1.0048-.8503-2.1287-1.5566-3.3464-2.0734-3.6387-1.5479-7.7236-1.4023-11.3252-1.2783l-36.9043 1.2383c-.2764.0098-.4922.2412-.4834.5166.0098.2705.2314.4834.5.4834h.0166l36.9053-1.2383c3.5-.1221 7.4648-.2617 10.9004 1.1982 4.4316 1.8809 7.5449 6.4453 7.7471 11.3496.0557 2.4258-.5244 4.8389-1.6787 6.9795-1.1533 2.1367-2.8516 3.9482-4.8965 5.2285-1.5059.8701-3.1016 1.6084-4.7695 2.2041-8.2578 3.2266-16.7969 6.5625-25.582 8.3857-3.166.6572-6.4385 1.1309-9.6035 1.5898-2.9131.4219-5.9268.8574-8.8672 1.4385-2.498.4902-4.6338.7666-6.6992 1.0342-1.4799.1921-2.9188.3808-4.4376.6357-.2959-4.9456-1.6442-9.4168-4.3159-14.3203 5.1042-1.0709 10.2833-2.2961 15.1519-4.3837 3.0605-1.3125 6.0352-2.9824 8.9121-4.5977 5.2461-2.9463 10.6709-5.9932 16.6377-6.8184.8145-.1152 1.6553-.1973 2.5029-.2812 3.5059-.3438 7.1318-.7002 9.4492-3.3555.1816-.208.1602-.5244-.0479-.7061-.208-.1797-.5244-.1611-.7061.0479-1.3673 1.5673-3.343 2.2344-5.4844 2.6055.6048-.9417 1.0988-1.9485 1.4688-3.0069.0918-.2607-.0459-.5459-.3066-.6367-.2607-.0938-.5449.0469-.6367.3066-.4434 1.2666-1.0759 2.4551-1.8763 3.5366-.65.0803-1.3051.1494-1.9577.2134-.8613.085-1.7178.1689-2.5439.2861-6.1523.8506-11.6611 3.9443-16.9893 6.9365-2.8535 1.6025-5.8037 3.2598-8.8164 4.5498-4.9572 2.1257-10.2808 3.3538-15.5133 4.4416-.0736-.0013-.1464.0116-.217.0446-.6681.1385-1.3353.2755-1.9992.4113-.0699.0143-.1448.0289-.2159.0434 2.0912-2.3654 3.419-5.317 4.7022-8.1909.4248-.9502.8477-1.8984 1.2979-2.8232 1.0439-2.1602 2.2871-4.2734 3.4893-6.3174l19.6163-33.3137c1.1291 3.9783 2.8163 7.7615 5.0624 11.2853.6328 1.0195 1.3545 1.998 2.1523 2.9131 1.3232 1.4795 2.9229 2.6777 4.4697 3.8359 1.2451.9326 2.5322 1.8965 3.6445 2.9883.0977.0957.2246.1436.3506.1436.1299 0 .2588-.0498.3564-.1494.1934-.1973.1904-.5137-.0059-.707-1.1602-1.1396-2.4746-2.124-3.7461-3.0762-1.5078-1.1289-3.0674-2.2969-4.3203-3.6963-.7568-.8701-1.4473-1.8047-2.0547-2.7842-3.0869-4.8428-5.1133-10.1729-6.0234-15.8428-.0439-.2734-.3047-.4541-.5732-.415-.2725.0439-.458.3008-.415.5732.2021 1.258.4683 2.4962.777 3.7199-.0948.0403-.1815.102-.2379.1981l-19.8447 33.7021-.0693.1182c-1.2129 2.0605-2.4668 4.1914-3.5273 6.3877-.4546.9336-.8828 1.8916-1.3115 2.8525-1.4391 3.2226-2.9319 6.547-5.488 8.9103-1.658.2597-3.4385.3524-5.0022-.2833-.8887-.3613-1.7139-.9541-2.5122-1.5283-1.1758-.8447-2.3921-1.7188-3.8955-1.9443-3.3477-.5068-5.9282 2.4277-6.8833 3.7109-1.4326 1.9248-2.4805 4.1162-3.4937 6.2354-1.146 2.3975-2.3311 4.876-4.0591 6.8965-.6157.7236-1.3228 1.4072-2.0063 2.0674-.6738.6514-1.3711 1.3252-2.0024 2.0557-1.5981 1.8496-2.4121 3.6846-2.4199 5.4541-.0088 2.0088 1.3711 4.373 3.6226 4.6914.7168.0918 3.5464.4365 5.5068.4365.7349 0 1.3481-.0488 1.6816-.1768.7739-.2998 1.5371-.6904 1.8887-1.5498.2319-.7129.3862-1.4512.4526-2.1504.1533-.81.4515-1.5874.8595-2.3019 5.3368-.562 11.6184-2.2523 17.1815-3.7548 2.2471-.6074 4.3701-1.1807 6.3672-1.668 3.1992-.7783 5.7656-1.1113 8.4834-1.4629 2.0811-.2695 4.2334-.5488 6.7637-1.0459 2.916-.5752 5.916-1.0098 8.8174-1.4297 3.1797-.46 6.4668-.9365 9.6631-1.6006 8.8682-1.8389 17.4463-5.1914 25.7422-8.4326 1.3441-.4792 2.6562-1.0619 3.9258-1.7332-.0126.1123-.0206.2264-.0127.3455.0469.7002.4531 1.3975 1.0361 1.7783.6758.4404 1.4482.543 2.2607.543.248 0 .5-.0098.7539-.0225 11.6006-.5322 23.1152-.668 35.2041-.4111.5811.0127 1.1699.0557 1.7578.0977 1.8955.1367 3.8545.2783 5.6357-.5596.8613-.4111 1.6113-.9873 2.2305-1.7129.6104-.7178 1.0723-1.5723 1.3232-2.4355.1394-.367.1511-.7761.0349-1.1502zm-113.8569 18.2618c-2.0093.4902-4.1377 1.0645-6.3911 1.6729-5.2248 1.4116-11.0829 2.984-16.1501 3.6202.7154-.8457 1.6122-1.5347 2.6228-1.9874.252-.1123.3647-.4082.252-.6602-.1128-.251-.4067-.3682-.6611-.252-1.2319.5518-2.3257 1.4043-3.1636 2.4648-.158.2002-.2974.4142-.4364.6283-.1946.0834-.3251.2791-.3038.5016.0002.0024.0016.0042.0019.0065-.4356.7883-.7591 1.6456-.9306 2.5589-.0659.6719-.2051 1.3379-.4019 1.9473-.1851.4502-.6387.7012-1.3105.9609-.7651.292-4.5166-.04-6.6953-.3174-1.7109-.2422-2.7627-2.1074-2.7559-3.6963.0068-1.5234.7388-3.1406 2.1768-4.8037.6021-.6973 1.2822-1.3545 1.9404-1.9902.7012-.6777 1.4263-1.3779 2.0723-2.1387 1.8125-2.1191 3.0264-4.6582 4.2007-7.1133.9927-2.0762 2.019-4.2236 3.3931-6.0693.8477-1.1387 3.1143-3.7334 5.9336-3.3203 1.2642.1904 2.3306.957 3.46 1.7686.8457.6074 1.7202 1.2354 2.7188 1.6416 1.7832.7255 3.7267.6287 5.5122.3495.0225.0031.0438.0138.0664.0138.0754 0 .1483-.0231.2178-.0573.5891-.0991 1.1596-.2142 1.6973-.3236.5824-.1193 1.168-.24 1.7537-.3611 2.7163 4.9124 4.0676 9.3541 4.3461 14.2811-1.0003.1845-2.042.4011-3.1656.6748zm112.8745-17.4297c-.2246.7666-.6182 1.4951-1.1377 2.1055-.5264.6182-1.166 1.1094-1.8965 1.458-1.543.7256-3.2881.5986-5.1357.4658-.6055-.0439-1.21-.0879-1.8086-.1006-12.1113-.2578-23.6494-.1221-35.2734.4131-.9502.0459-1.7881.0527-2.4209-.3604-.3184-.208-.5586-.6221-.584-1.0068-.0117-.1709.0146-.4092.2051-.5742.1481-.128.1974-.3231.1523-.5005 2.0445-1.3625 3.7476-3.1964 4.9151-5.3608 1.2354-2.293 1.8574-4.8779 1.7979-7.4863-.1489-3.6016-1.7549-7.0281-4.2712-9.4902.8543-.9072 1.6061-1.6445 2.6622-2.2043.9547 1.127 1.9529 2.218 2.9967 3.2541 5.1484 5.1523 11.1807 8.0039 18.5303 11.1973 1.5459.6689 3.0996 1.5508 4.7441 2.4844 2.9336 1.6641 5.9658 3.3848 9.0811 3.9062l3.6191.582c.0352.0049.0693.0098.1045.0049 1.085-.0518 2.1514.0781 3.2432.4062.1133.0205.2227.0645.3193.1318.0781.0518.1445.1182.2002.1973.0331.1464.0213.3046-.0431.4775z"></path><path d="m91.2354 32.8066c.6792-1.0083 1.7554-3.4336 1.8306-4.835-.0249-.791-.1479-1.5776-.356-2.2988-.188-.9302-.8301-1.5239-1.8081-1.6709-1.2183-.187-2.8672.3921-3.2729 1.1392-.1304.2397-.04.5332.1973.6675.2373.1318.5435.0459.6812-.1895.147-.25 1.3286-.7832 2.2764-.6235.543.0908.8438.3691.9556.9141.1943.6807.3047 1.3853.3281 2.0503-.0581 1.0498-.9775 3.2725-1.6611 4.2881-.647.9604-2.6987 2.5332-3.6836 2.6729-.2734.0391-.4634.292-.4248.5654.0356.2495.2495.4297.4946.4297.0234 0 .0469-.0015.0708-.0049 1.3675-.1944 3.658-2.045 4.3719-3.1046z"></path><path d="m86.4307 18.8667c.6396 0 1.2788-.0229 1.9019-.0459.8364-.0308 1.7026-.0625 2.5454-.0352.2642.0312.5073-.207.5156-.4834.0093-.2759-.2075-.5068-.4834-.5156-.8765-.0273-1.7588.0039-2.6138.0352-.792.0283-1.6108.0581-2.4082.0386-1.916-.0469-3.4087-.4106-4.5645-1.1113-.2358-.1436-.5439-.0684-.6865.168-.1436.2358-.0684.5435.168.6865 1.3086.7944 2.9634 1.2051 5.0586 1.2568.1884.0043.3774.0063.5669.0063z"></path><path d="m96.3145 15.3271c-2.3721-1.3623-5.2095-1.644-7.9224-1.7456l-.998-.0337c-2.2622-.0713-4.6011-.1445-6.7256-.8647-.2617-.0869-.5454.0522-.6343.313-.0884.2617.0518.5454.313.6343 2.2661.7676 4.6802.8438 7.0151.917l.9927.0332c2.9868.1118 5.3989.4292 7.4614 1.6138.0786.0449.1641.0664.2485.0664.1733 0 .3418-.0898.4341-.251.1377-.2393.0547-.545-.1845-.6827z"></path><path d="m96.8008 23.7095c.1138 0 .2285-.0391.3223-.1182.2109-.1782.2373-.4941.0591-.7046-1.5679-1.854-4.1885-2.1611-6.1035-2.0835-.7002.0259-1.3979.0938-2.0938.1616-1.3906.1357-2.7041.2637-4.0239.0659-.2749-.0332-.5273.1475-.5688.4204-.041.2729.1475.5278.4204.5688 1.4414.2158 2.8794.0757 4.2695-.0596.6763-.0664 1.354-.1328 2.0342-.1582 1.6953-.0669 3.9951.1841 5.3022 1.73.0991.1173.2402.1774.3823.1774z"></path><path d="m69.9307 8.5264c.2827-.0771.5654-.1582.8477-.2388 1.2363-.3545 2.4043-.689 3.6172-.7178 1.2812-.0215 2.8765.3896 3.6133 1.6543.1719.2949.291.6299.4175.9844.1338.3755.272.7637.4844 1.1338.0923.1611.2607.251.4341.251.0845 0 .1699-.0215.2485-.0664.2393-.1377.3223-.4429.1846-.6826-.168-.2925-.2852-.6221-.4097-.9712-.1362-.3818-.2769-.7773-.4956-1.1523-.9561-1.6421-2.9688-2.1855-4.5005-2.1509-1.3413.0317-2.6265.3999-3.8691.7563-.2783.0796-.5566.1597-.8296.2339-.7119.1855-1.438.3423-2.1582.4658-.2725.0464-.4551.3052-.4082.5771.0464.272.3086.4561.5771.4082.7484-.1284 1.5023-.291 2.2465-.4848z"></path><path d="m63.9351 112.2754c1.2925.1846 2.5952.2764 3.8975.2764 3.2383 0 6.4692-.5664 9.5049-1.6777 1.7964-.5879 3.4331-1.5098 4.8643-2.7402 1.4316-1.2305 2.5884-2.71 3.4375-4.3994.124-.2471.0244-.5469-.2222-.6709-.2476-.1279-.5479-.0244-.6714.2217-.7896 1.5703-1.8647 2.9463-3.1958 4.0908s-2.8525 2.001-4.5396 2.5527c-4.1182 1.5078-8.5918 1.9775-12.9336 1.3564-.272-.0293-.5264.1514-.5659.4248-.0391.2734.1508.5263.4243.5654z"></path></g></svg>