<svg xmlns="http://www.w3.org/2000/svg" viewBox="0 0 60 65"><g fill="#819d86"><path d="m39.0275 52.2931c4.7621-4.9276 6.7886-11.5824 7.8546-18.5137.4636-.0249 1.288.0164 1.7653.5673.5557.6406.543 1.8838-.0371 3.5938-.248.7314-.4912 1.4355-.7246 2.1133-1.5664 4.5488-2.71 7.8662-2.5635 10.7471-.0361.0293-.0713.0527-.0898.0557-.0059-.002-.5664-.2471-.9014-3.1816-.0322-.2744-.2871-.4727-.5537-.4404-.2744.0312-.4717.2793-.4404.5537.2949 2.5771.8027 3.8223 1.6484 4.0371.0859.0215.1689.0312.248.0312.5791 0 .9629-.5215 1.0098-.5879.0664-.0947.0977-.209.0898-.3242-.2021-2.7266.9307-6.0137 2.498-10.5645.2344-.6797.4775-1.3848.7266-2.1191.7119-2.0977.6582-3.6377-.1592-4.5742-.6804-.7808-1.6975-.9179-2.3682-.9123.4583-3.2595.7253-6.5637.9834-9.7635 0-3.6597-1.4248-7.1001-4.0127-9.6875-1.5689-1.5686-3.454-2.702-5.5084-3.3576.0014-.1741.0114-.3552.0005-.5145 0-2.1865-.8516-4.2432-2.3984-5.791-1.5479-1.5469-3.6045-2.3989-5.7915-2.3989-2.1875 0-4.2441.8521-5.791 2.3989s-2.3989 3.6035-2.3989 5.791v.5506c-2.0145.6605-3.8644 1.7789-5.4072 3.3215-2.5874 2.5874-4.0127 6.0278-4.0127 9.6934.0189 1.5864.0834 3.0946.169 4.5676-.0014.0169-.0061.0322-.0074.0491-.0046.0602.0059.1174.0213.1723.1047 1.7272.2454 3.3944.4438 4.9677-.648-.0048-1.6234.1309-2.2835.8839-.8169.9326-.8662 2.4814-.1465 4.6035.2485.7334.4912 1.4375.7251 2.1162 1.5679 4.5518 2.7012 7.8408 2.5 10.5674-.0088.1152.0229.2295.0889.3242.0469.0664.4307.5879 1.0107.5879.0786 0 .1611-.0098.2471-.0312.8457-.2148 1.354-1.46 1.6484-4.0371.0317-.2744-.1655-.5225-.4399-.5537-.2749-.0303-.5225.166-.5532.4404-.3354 2.9346-.896 3.1797-.8945 3.1807-.0205-.002-.0576-.0244-.0967-.0557.145-2.8818-.998-6.1992-2.5654-10.749-.2329-.6768-.4751-1.3799-.7231-2.1104-.5879-1.7324-.6055-2.9844-.0518-3.6201.4596-.5273 1.2413-.5652 1.6824-.5403 1.1599 8.1481 3.6372 14.1913 7.5578 18.3363-1.2004 1.2261-6.9218 7.0539-10.9277 10.873-.1479.1416-.1948.3584-.1191.5479.0762.1904.2598.3145.4644.3145h38.9297c.1895 0 .3623-.1064.4473-.2754.084-.1699.0664-.3721-.0469-.5234-1.7655-2.3682-8.8311-8.9821-10.7459-10.76zm-.8166-.5698c-.1335.0009-.2664.0521-.3642.1585-.0853.0925-.1238.2089-.1271.3253-1.4337 1.357-3.105 2.5655-5.0662 3.5907-.7051.3623-1.4922.541-2.3066.543-.8105.0029-1.5933-.1475-2.3267-.4648-8.7116-3.9473-13.2523-12.9939-14.1542-28.2568.5477-6.2148 8.3465-9.0417 15.8724-9.0825.0542 0 .1079-.0005.1621-.0005 7.9326 0 16.1797 3.1377 16.7051 9.1787.0005.0053.0035.0095.0042.0148-.1722 1.8285-.3737 3.6468-.6319 5.4358-.0167.0498-.0226.1012-.0227.1555-1.0302 7.037-2.9838 13.5945-7.7442 18.4023zm-15.0976-42.2721c0-1.9204.748-3.7261 2.106-5.084s3.1636-2.106 5.084-2.106 3.7261.748 5.0845 2.106c1.3574 1.3589 2.1055 3.1641 2.1064 5.1167.0048.0706-.0023.1413 0 .212-1.0314-.2444-2.0942-.3849-3.1807-.3849h-7.9199c-1.1217 0-2.218.1495-3.2803.4097zm-9.4199 13.5595c0-3.3926 1.3208-6.5815 3.7197-8.9805 2.3989-2.3984 5.5884-3.7192 8.9805-3.7192h7.9199c3.3926 0 6.582 1.3208 8.9805 3.7192 2.3984 2.3989 3.7197 5.5879 3.7217 8.9404-.0545.6745-.1094 1.3502-.1656 2.0261-1.9209-3.9513-7.4536-7.4606-16.9095-7.4606-.0688 0-.1387.0005-.2075.0005-6.697.0363-13.5912 2.2396-15.9977 6.9863-.0135-.5051-.0359-.9945-.042-1.5122zm-2.0074 39.8409c3.9246-3.7889 8.9349-8.8924 10.0572-10.038 1.7081 1.6392 3.6528 2.9715 5.871 3.9764.8438.3662 1.7363.5518 2.6445.5518.0298 0 .0601-.001.0903-.001.978.0156 1.9136-.2178 2.7632-.6553.001 0 .002-.001.0029-.001 2.0074-1.0491 3.7255-2.2907 5.2018-3.6863 1.6522 1.5367 7.5908 7.0956 9.9993 9.8533h-36.6302z"></path><path d="m28.708 45.7363c.6514.6514 1.5537 1.0254 2.4746 1.0254h1.7598c.2764 0 .5-.2236.5-.5s-.2236-.5-.5-.5h-1.7598c-.6577 0-1.3022-.2666-1.7676-.7324-.4653-.4648-.7324-1.1094-.7324-1.7676v-10.5503c0-1.3091-.5098-2.5396-1.4351-3.4648s-2.1558-1.4351-3.4648-1.4351h-3.21c-.4438 0-.876.0859-1.2852.2563-.4102.1704-.7764.4155-1.0884.729-.3125.314-.5562.6807-.7251 1.0908-.1685.4097-.2534.8423-.2515 1.2856.001.2754.2246.498.5.498h.002c.2764-.001.499-.2256.498-.502-.001-.311.0581-.6143.1763-.9014.1187-.2876.29-.5454.5088-.7656.2188-.2197.4756-.3916.7637-.5112.2866-.1191.5898-.1797.9014-.1797h3.21c1.042 0 2.0215.4058 2.7578 1.1421s1.1421 1.7158 1.1421 2.7578v10.5503c0 .9221.374 1.8235 1.0254 2.4748z"></path><path d="m42.2461 28.7974c-.3125-.314-.6787-.5596-1.0889-.73-.4092-.1699-.8408-.2559-1.2842-.2559h-1.9121c-.8945.0029-1.7354.354-2.3682.9883-.6318.6338-.9795 1.4761-.9795 2.3716 0 .2764.2236.5.5.5s.5-.2236.5-.5c0-.6289.2441-1.2207.6885-1.6655.4434-.4458 1.0342-.6924 1.6611-.6943h1.9102c.3105 0 .6143.0605.9014.1797s.5439.2915.7637.5122c.2188.2188.3896.4756.5088.7651.1182.2861.1777.5894.1768.9014-.001.2764.2227.501.499.5015h.001c.2754 0 .499-.2231.5-.4985.001-.4453-.084-.8779-.252-1.2852-.1699-.4117-.4141-.7789-.7256-1.0904z"></path><path d="m32.9531 49.752h-4.5898c-.2764 0-.5.2236-.5.5s.2236.5.5.5h4.5898c.2764 0 .5-.2236.5-.5s-.2236-.5-.5-.5z"></path></g></svg>