<svg xmlns="http://www.w3.org/2000/svg" viewBox="0 0 61 60"><g fill="#819d86"><path d="m56.8683 34.955c-.4031-1.512-.8265-2.6953-.8302-2.6953-.6602-2.9521-.0205-5.2529.79-8.166.6328-2.2739 1.3496-4.8516 1.5996-8.3003.2393-3.2622-.5635-5.6187-2.3848-7.0039-3.2584-2.4767-8.6596-.9856-10.0172-.5533-.0576-.0613-.1096-.1268-.1693-.1865-.752-.7495-1.6289-1.3345-2.6084-1.7373-.9766-.4033-2.0078-.6079-3.0645-.6079-.002 0-.0049 0-.0078 0h-4.999c-.1163-1.3415-.668-2.5933-1.6318-3.5571-1.085-1.083-2.5264-1.6797-4.0591-1.6797-1.5332 0-2.9746.5967-4.0586 1.6802-.9638.9638-1.5157 2.2155-1.6323 3.5566h-4.9766c-.0029 0-.0054 0-.0078 0-1.0581 0-2.0894.2046-3.0654.6074-.9805.4043-1.8579.9893-2.6074 1.7378-.0308.0307-.057.0648-.0872.0959-1.3187-.4186-6.5714-1.8599-9.7775.5793-1.8291 1.3916-2.6338 3.77-2.3916 7.0688.251 3.4185.9644 5.9868 1.5933 8.2529 1.1143 4.0112 1.9189 6.9097-.5674 11.8799-1.6479 3.2939-2.644 12.6357 1.4102 18.0049 2.5244 3.3516 6.7319 5.4287 10.7188 5.4287.6147 0 1.2246-.0498 1.8223-.1514 3.0513-.5205 5.293-2.3643 6.1504-5.0596.0835-.2627-.062-.5439-.3252-.6279-.2632-.0811-.5439.0625-.6279.3252-.7505 2.3604-2.6562 3.915-5.3652 4.376-4.1196.7051-8.8765-1.3105-11.5747-4.8936-3.6553-4.8408-2.9282-13.7285-1.314-16.9551 2.6587-5.3145 1.7661-8.5273.6367-12.5947-.6172-2.2212-1.3164-4.7388-1.5601-8.0586-.2155-2.9387.4564-5.0241 1.9984-6.1984 2.541-1.9362 6.8264-1.0015 8.4705-.5392-.3798.5164-.7038 1.0715-.9524 1.6706-.4058.978-.6118 2.0117-.6118 3.0718v.37c-.4418.3889-.8234.8502-1.083 1.3795-.2983.6099-.457 1.29-.4556 2.0181l2.1699 22.0005c.3677 3.3203 1.9077 6.4111 4.3364 8.7051 2.3525 2.2234 5.4076 3.5612 8.6298 3.8064.6646 1.494 3.994 7.2844 15.7531 7.5208.2422.0049.4805.0068.7178.0068 13.8564 0 19.2188-8.2529 19.5977-16.0771.1244-2.4728.322-6.7332-3.5811-8.5003zm-1.4288-25.3681c1.5342 1.1675 2.2031 3.231 1.9902 6.1338-.2422 3.3496-.9453 5.876-1.5654 8.1055-.8145 2.9272-1.5176 5.4551-.7852 8.7129.0039.0102.3062.856.636 2.002-.4388-.1202-.9028-.2242-1.4241-.2901-3.3693-.4301-5.2929.922-6.3451 2.2245l1.8773-19.0439c-.001-.7095-.1729-1.4175-.498-2.0464-.2728-.5316-.6592-1.0016-1.1152-1.3835v-.2767c0-1.0605-.2061-2.0942-.6113-3.0718-.2336-.5626-.5333-1.0865-.8827-1.5767 1.6777-.4763 6.1246-1.4685 8.7235.5104zm-29.3052-6.7319c.895-.8945 2.0854-1.3872 3.3516-1.3872 1.2656 0 2.4565.4927 3.3521 1.3872.7745.7749 1.2256 1.7753 1.3388 2.8496h-9.3818c.1132-1.074.5644-2.0748 1.3393-2.8496zm-12.2901 5.9028c.6562-.6558 1.4238-1.1675 2.2822-1.5215.855-.353 1.7578-.5317 2.6846-.5317h.0068 21.3589.0068c.9258 0 1.8281.1792 2.6836.5322.8574.353 1.625.8647 2.2822 1.521.6572.6558 1.1699 1.4224 1.5254 2.2783.3073.74.4749 1.5173.5169 2.3141-.645-.3049-1.3549-.4725-2.0491-.4708h-31.205c-.7371-.001-1.4747.1837-2.1382.5146.038-.8115.2066-1.604.5195-2.3579.3555-.8569.8687-1.6235 1.5254-2.2783zm45.607 34.6475c-.3633 7.4902-5.627 15.4111-19.2979 15.1201-12.4619-.251-14.938-7.1104-14.9619-7.1807l-4.9775-14.7266c-.0879-.2607-.3706-.3994-.6338-.3135-.2617.0879-.4019.3721-.3135.6338l4.7407 14.0259c-2.8275-.3143-5.4935-1.5309-7.5698-3.4927-2.2563-2.1318-3.6875-5.0039-4.0283-8.082l-2.167-21.9453c.001-.5269.124-1.0557.356-1.5298.2247-.4573.5558-.8615.9573-1.1838.0348-.0233.0684-.046.0963-.077.6439-.4978 1.4393-.7744 2.2579-.7744h.0244 31.2114c.8145.0054 1.5791.2505 2.2207.7231.4482.3218.8184.75 1.0703 1.2402.252.4893.3857 1.0391.3887 1.541l-2.0947 21.2607-.0732.7119c-.0039.0371-.0068.0811-.002.1182-.0043.0775-.0205.1571-.0283.2347-.0302.1592-.0504.3196-.0648.481-.3054 1.7971-.9717 3.4777-1.986 4.9943-.9697 1.4462-2.2053 2.6486-3.6579 3.5974-1.8018-1.1897-2.2203-2.6686-2.2376-2.7253-.3467-2.2725-.3506-9.209-.3506-9.2783 0-.2764-.2236-.5-.5-.5s-.5.2236-.5.5c0 .2881.0039 7.082.3721 9.4766.0287.1134.5626 2.0575 2.8808 3.4918.0519.0488.11.0854.1757.1078.892.5209 2.0267.9658 3.4855 1.2109.4277.0723.8623.1074 1.2979.1074 1.6885 0 3.3906-.5303 4.7402-1.5068 1.0615-.7676 1.7451-1.6963 1.875-2.5479.042-.2725-.1455-.5283-.4189-.5693-.2676-.0381-.5283.1445-.5693.4189-.0869.5713-.6514 1.2949-1.4727 1.8887-1.4854 1.0742-3.4609 1.5312-5.2861 1.2227-1.0022-.1684-1.8257-.4398-2.5151-.7602 1.3777-.9738 2.5651-2.1646 3.5122-3.5777.6591-.9857 1.1654-2.0411 1.5493-3.1407.1487.335.3332.6539.5523.9464.4502.5996 1.043 1.0957 1.7148 1.4346.6719.3369 1.4238.5166 2.1865.5195 1.5088-.0342 2.7285-.7383 3.3447-1.9316.4971-.9619.5137-2.0791.04-2.7793-.2959-.4385-.751-.6572-1.2852-.6133-.2744.0264-.4766.2705-.4502.5459.0273.2754.2764.4717.5459.4502.1572-.0176.2676.0391.3604.1768.2227.3291.2637 1.0586-.0996 1.7607-.2607.5049-.9287 1.3564-2.4648 1.3906-.5967-.0029-1.1943-.1455-1.7285-.4131-.5342-.2695-1.0059-.6641-1.3633-1.1406s-.6035-1.04-.7109-1.627-.0771-1.2002.0889-1.7744c.0292-.1017.0162-.202-.0152-.2952l.0269-.2719c.0327-.0475.061-.099.0762-.1575.0439-.1729 1.1533-4.2432 6.3906-3.5781 5.2215.6592 5.4744 4.3936 5.285 8.1622z"></path><path d="m15.6504 24.958c-.2397.0225-.4292.2124-.4517.4521-.0103.1138-.2358 2.811 1.5693 4.8442 1.2061 1.3589 3.0098 2.0796 5.3608 2.1431h.0132c.1323 0 .2593-.0527.3535-.1465.0967-.0967.1499-.2295.1465-.3662-.0596-2.3511-.7788-4.1548-2.1367-5.3604-2.0351-1.8075-4.7416-1.5756-4.8549-1.5663zm1.8721 4.6397c-1.1221-1.2583-1.312-2.8809-1.334-3.6519.77.0186 2.3877.2026 3.6533 1.3262 1.04.9238 1.6357 2.3008 1.7734 4.0972-1.7929-.1397-3.1684-.7344-4.0927-1.7715z"></path><path d="m43.9961 25.4111c-.0215-.2402-.2119-.4307-.4512-.4531-.1182-.0088-2.8213-.2402-4.8564 1.5664-1.3574 1.2061-2.0762 3.0093-2.1357 5.3604-.0029.1367.0498.2695.1465.3662.0938.0938.2217.1465.3535.1465h.0137c2.3457-.0635 4.1465-.7832 5.3525-2.1401 1.8085-2.0333 1.5869-4.7325 1.5771-4.8463zm-6.416 5.958c.1367-1.792.7295-3.1665 1.7656-4.0903 1.2588-1.1226 2.8857-1.311 3.6592-1.3315-.0225.7725-.2158 2.395-1.3389 3.6528-.9248 1.0356-2.2978 1.6294-4.0859 1.769z"></path><path d="m32.8574 37.3232c0-.2764-.2236-.5-.5-.5h-6.9375c-.2764 0-.5.2236-.5.5s.2236.5.5.5h6.9375c.2764 0 .5-.2236.5-.5z"></path><path d="m32.8584 40.748c0-.2764-.2236-.5-.5-.5h-5.2607c-.2764 0-.5.2236-.5.5s.2236.5.5.5h5.2607c.2764 0 .5-.2236.5-.5z"></path><path d="m32.3594 43.6729h-3.584c-.2764 0-.5.2236-.5.5s.2236.5.5.5h3.584c.2764 0 .5-.2236.5-.5s-.2237-.5-.5-.5z"></path></g></svg>