<svg xmlns="http://www.w3.org/2000/svg" viewBox="0 0 58 60"><g fill="#819d86"><path d="m7.8623 59.5947c-2.5767 0-4.2437-.7539-5.2949-1.5762-1.7373-1.3594-2.2466-3.2695-2.144-4.6035.4141-5.3975 5.2158-9.4395 13.8867-11.6895 6.438-1.6709 12.8413-1.7871 12.9053-1.7881h.7661c.0718.001 6.4756.1172 12.9131 1.7881 8.6709 2.25 13.4727 6.292 13.8857 11.6895.1035 1.335-.4053 3.2461-2.1416 4.6045-1.7432 1.3633-5.1836 2.5391-11.6758.3916-4.8164-1.5732-9.293-3.8291-13.3682-6.7334-4.085 2.8984-8.6157 5.1895-13.356 6.7344-2.5781.8545-4.6752 1.1826-6.3764 1.1826zm20.1113-18.6572h-.7505c-.2412.0039-24.8799.5234-25.8027 12.5537-.083 1.0762.3369 2.624 1.7632 3.7393 1.5518 1.2158 4.6758 2.2393 10.7432.2314 4.5405-1.4795 8.8838-3.6572 12.8145-6.4062-1.4194-1.0586-2.7891-2.1973-4.105-3.415-.2031-.1875-.2153-.5039-.0278-.707s.5034-.2148.7065-.0273c1.3696 1.2676 2.7979 2.4473 4.2812 3.5381 1.499-1.0977 2.9341-2.2793 4.2925-3.5381.2021-.1865.5176-.1768.707.0273.1875.2021.1748.5186-.0273.707-1.3066 1.2109-2.6831 2.3516-4.1187 3.417 3.9194 2.752 8.2134 4.8975 12.8257 6.4033 6.0703 2.0088 9.1953.9844 10.7471-.2285 1.4248-1.1152 1.8438-2.6641 1.7617-3.7412-.9229-12.0362-25.5615-12.5499-25.8106-12.5538z"></path><path d="m43.5723 35.3428c-.2764 0-.5-.2236-.5-.5v-5.9702c.0547-1.9648-.2764-3.8755-.9824-5.6934s-1.752-3.4487-3.1094-4.8477c-1.3545-1.3984-2.9512-2.4927-4.7432-3.252-3.5791-1.5186-7.6782-1.5186-11.2598 0-1.7915.7588-3.3877 1.853-4.7437 3.252-1.3555 1.3979-2.4014 3.0288-3.1089 4.8477-.7061 1.8179-1.0366 3.7285-.9824 5.6797v5.9839c0 .2764-.2236.5-.5.5s-.5-.2236-.5-.5v-5.9702c-.0576-2.0708.2959-4.1128 1.0508-6.0557.7554-1.9438 1.8735-3.6875 3.3228-5.1816 1.4497-1.4951 3.1558-2.665 5.0708-3.4766 3.8306-1.623 8.2119-1.623 12.041 0 1.916.812 3.6221 1.9819 5.0713 3.4766 1.4492 1.4951 2.5674 3.2388 3.3223 5.1816s1.1084 3.9849 1.0508 6.0693v5.9565c0 .2764-.2237.5001-.5.5001z"></path><path d="m7.2773 42.0068c-.9316 0-1.8389-.1855-2.6973-.5527-.8594-.3682-1.6211-.8975-2.2651-1.5713-.6445-.6758-1.1382-1.4609-1.4673-2.3359-.3281-.874-.4746-1.791-.4351-2.7256l-.0005-2.0391c0-.2764.2236-.5.5-.5s.5.2236.5.5v2.0605c-.0347.8203.0908 1.6045.3721 2.3525.2808.748.7031 1.4189 1.2539 1.9961s1.2017 1.0283 1.9351 1.3428c1.4668.627 3.1411.627 4.6089 0 .7329-.3145 1.3838-.7656 1.9341-1.3428.5508-.5762.9727-1.248 1.2549-1.9961.2808-.748.4062-1.5322.3721-2.3311l-.0005-2.082c0-.2764.2236-.5.5-.5s.5.2236.5.5v2.0605c.0391.9131-.1074 1.8301-.4355 2.7041-.3301.876-.8237 1.6611-1.4678 2.3359-.6436.6738-1.4053 1.2031-2.2642 1.5713-.8589.3674-1.7661.5529-2.6978.5529z"></path><path d="m49.9355 42.0068c-.9307 0-1.8389-.1855-2.6973-.5527-.8584-.3682-1.6211-.8965-2.2646-1.5713-.6455-.6748-1.1387-1.4609-1.4668-2.3359-.3301-.875-.4766-1.792-.4365-2.7256v-2.0391c0-.2764.2236-.5.5-.5s.5.2236.5.5v2.0605c-.0352.8203.0908 1.6035.3721 2.3525.2812.748.7031 1.4199 1.2539 1.9961.5508.5771 1.2021 1.0293 1.9355 1.3428 1.4668.627 3.1396.627 4.6084 0 .7324-.3135 1.3838-.7656 1.9346-1.3428.5508-.5762.9727-1.248 1.2539-1.9961.2812-.749.4072-1.5322.3721-2.3311v-2.082c0-.2764.2236-.5.5-.5s.5.2236.5.5v2.0605c.04.9121-.1064 1.8291-.4365 2.7041-.3281.875-.8213 1.6611-1.4668 2.3359-.6436.6748-1.4062 1.2031-2.2637 1.5713-.8594.3674-1.7676.5529-2.6983.5529z"></path><path d="m29.0044 14.1372c-.4492 0-.9004-.0444-1.3472-.1343-1.3315-.2676-2.542-.918-3.5015-1.8818-.959-.9639-1.6055-2.1792-1.8691-3.5146s-.1284-2.7056.3916-3.9624c.52-1.2578 1.3911-2.3223 2.52-3.0786 1.8833-1.2598 4.3345-1.501 6.4248-.6328.833.3467 1.5801.8481 2.2217 1.4912.6387.6426 1.1367 1.3931 1.4814 2.231.3447.8364.5186 1.7212.5176 2.6299v.0005c-.002 1.3608-.4023 2.6782-1.1582 3.8091-.7578 1.1313-1.8203 2.0039-3.0742 2.5229-.834.3451-1.7173.5199-2.6069.5199zm-.0044-12.728c-1.1587 0-2.2808.3413-3.2451.9873-.9639.6455-1.7085 1.5552-2.1528 2.6294-.4438 1.0742-.5596 2.2456-.334 3.3872.2251 1.1411.7773 2.1792 1.5967 3.0029.8188.8228 1.8525 1.3784 2.9893 1.6064 1.1362.2285 2.3042.1143 3.3745-.3291 1.0713-.4434 1.9785-1.1885 2.625-2.1548s.9883-2.0923.9902-3.2554c.001-.7769-.1475-1.5332-.4414-2.2476-.2949-.7163-.7217-1.3579-1.2666-1.9062-.5469-.5488-1.1855-.9775-1.8975-1.2729-.7129-.2968-1.4663-.4472-2.2383-.4472zm6.3438 5.875h.0098z"></path><path d="m28.8867 35.4736c-.0972 0-.1938 0-.293-.002-.1538-.0029-.2979-.0752-.3911-.1982-.0928-.123-.124-.2812-.0845-.4297.6328-2.3818 2.0928-4.4683 4.1104-5.8735 2.0176-1.4058 4.4717-2.0508 6.9229-1.8125.1338.0127.2568.0791.3418.1841.084.1045.123.2388.1064.3726-.0088.0781-1.0351 7.7592-10.7129 7.7592zm9.2676-7.3642c-1.9053 0-3.7783.5835-5.3535 1.6812-1.6445 1.145-2.8784 2.7896-3.5249 4.6792 7.1401-.1592 8.853-4.7686 9.2319-6.3535-.1172-.0045-.2353-.0069-.3535-.0069z"></path><path d="m28.3164 35.4736c-9.6792 0-10.7041-7.6812-10.7134-7.7593-.0156-.1338.0229-.2681.1069-.3726.0845-.105.2075-.1714.3413-.1841 2.4443-.2373 4.9043.4058 6.9229 1.8125 2.0186 1.4058 3.478 3.4917 4.1108 5.8735.0396.1484.0083.3066-.0845.4297-.0933.123-.2373.1953-.3911.1982-.0981.0021-.1962.0021-.2929.0021zm-9.6191-7.3574c.3862 1.5854 2.1191 6.1914 9.23 6.3535-.6465-1.8896-1.8809-3.5337-3.5244-4.6792-1.6734-1.165-3.6812-1.7553-5.7056-1.6743z"></path><path d="m26.7222 31.7842c-.2046 0-.3965-.126-.4702-.3301-.6016-1.6597-.7119-3.4463-.3188-5.167.3926-1.7212 1.2671-3.2827 2.5288-4.5146.0996-.0972.2256-.1523.375-.1416.1392.0073.269.0723.3584.1797 1.0527 1.2637 1.7949 2.7808 2.1475 4.3882.3525 1.6084.3145 3.2983-.1113 4.8872-.0723.2666-.3428.4219-.6133.3535-.2666-.0723-.4248-.3457-.3535-.6128.3848-1.4346.4199-2.9609.1016-4.4141-.2783-1.2681-.8252-2.4741-1.5933-3.5195-.916 1.0264-1.5566 2.2661-1.8652 3.6167-.3496 1.5327-.2515 3.125.2847 4.6045.0938.2588-.04.5459-.2998.6396-.0564.0205-.114.0303-.1706.0303z"></path></g></svg>