<svg xmlns="http://www.w3.org/2000/svg" viewBox="0 0 229 204"><path d="m111.97 45.4957c11.21 4.9508 24.086 6.8502 36.34 6.8502 27.699 0 50.153 22.4539 50.153 50.1521 0 36.534-32.445 81.557-68.286 88.638-2.87.567-5.837.865-8.873.865-29.5906 0-60.6367-20.526-81.4856-41.524-11.6319-11.716-18.8184-27.851-18.8184-45.664 0-35.7949 29.0174-64.8123 64.8122-64.8123 9.3077 0 18.1568 1.962 26.1578 5.495z" fill="#fffcf5"></path><g fill="#819d86"><path d="m15.0718 172.6729c1.1201 0 2.2305-.1533 3.3091-.457 2.874-.8018 7.9541-2.2393 9.686-2.8574 2.6587-.9443 5.7515-2.0488 8.8096-3.2158 3.0889-1.1943 7.1426-2.8213 11.1123-4.8125 7.7837-3.9043 23.1968-16.498 23.8008-16.9971 1.3394-.8525 2.3789-2.1436 2.9272-3.6367.5142-1.4102.9023-2.876 1.1509-4.3398.6606-3.1514 1.521-6.3262 2.3535-9.3965 1.4233-5.25 2.895-10.6777 3.4248-16.1973.0264-.2754-.1748-.5195-.4497-.5459-.2705-.0176-.5195.1748-.5454.4502-.522 5.4346-1.9824 10.8223-3.395 16.0312-.8359 3.084-1.7007 6.2734-2.3706 9.4717-.2417 1.4229-.6147 2.8311-1.1074 4.1826-.4731 1.2871-1.3696 2.4014-2.5737 3.1719-.1587.1299-15.979 13.0576-23.6636 16.9111-3.9316 1.9727-7.957 3.5879-11.0225 4.7734-3.0459 1.1621-6.1323 2.2646-8.7866 3.207-1.7041.6084-6.7583 2.0381-9.6201 2.8369-1.2036.3389-2.4482.4727-3.7002.4004-4.062-.252-7.4268-1.1035-10.3086-2.6152-.6333-.293-1.1963-.7002-1.6567-1.1924-.7876-.9307-.9175-2.3037-1.0327-3.5146-.1255-1.333-.2168-2.5918-.2778-3.8486-.0425-.8711.3315-2.7979.6626-3.1758.0649-.0029.1284-.0195.187-.0469.0439.0127.1836.0713.4023.3447.1714.2168.4858.25.7026.0791.2158-.1719.251-.4873.0786-.7021-.6289-.7881-1.1875-.7686-1.4785-.6777-.1807.0068-.3569.0801-.5103.2119-.7803.6738-1.0806 3.2471-1.0435 4.0156.062 1.2725.1543 2.5459.2817 3.8936.1221 1.291.2744 2.8965 1.2808 4.0859.5654.6045 1.2329 1.0869 1.9614 1.4238 2.9868 1.5674 6.4834 2.4561 10.6909 2.7168.2408.0146.481.0215.7208.0215z"></path><path d="m227.5615 157.2598c-.2275-.1084-.8867-.2939-1.6006.6396-.168.2188-.127.5322.0928.7002.2178.1699.5332.1279.7002-.0928.2148-.2793.3662-.3398.3281-.375.0195.0137.04.0254.0605.0361.5332.7549.3779 6.4775.1104 9.3955-.1289 1.4072-.2949 2.6426-1.0264 3.5068-.4502.5137-1.0195.9268-1.6533 1.1963-4.123 1.8242-11.4971 3.2236-23.21-.4697l-.4551-.1416c-3.5762-1.0518-9.7451-4.7139-14.249-7.3887-2.1074-1.251-3.9277-2.3311-5.0684-2.9043-7.6709-3.8477-22.1055-17.2188-22.3213-17.4082-1.1533-.7383-2.0508-1.8525-2.5254-3.1367-.4941-1.3516-.8652-2.7588-1.1084-4.2021-.7197-3.4385-2.1465-8.1533-3.6562-13.1455-2.2002-7.2734-4.6943-15.5166-5.1904-20.6895-.0264-.2754-.2715-.4775-.5459-.4497-.2744.0264-.4766.2705-.4502.5454.5068 5.2715 2.9072 13.208 5.2285 20.8828 1.5039 4.9707 2.9248 9.666 3.6318 13.042.249 1.4844.6367 2.9512 1.1523 4.3623.5498 1.4873 1.5889 2.7783 2.8545 3.5781.5957.5537 14.6836 13.6035 22.4814 17.5156 1.1094.5566 2.916 1.6289 5.0068 2.8701 4.5498 2.7012 10.7812 6.4004 14.4766 7.4873l.4375.1357c5.4814 1.7285 10.0479 2.3643 13.8008 2.3643 4.4697 0 7.7842-.9023 10.1074-1.9307.7646-.3252 1.459-.8271 2.0137-1.46 1-1.1826 1.1533-2.8506 1.2646-4.0684.1496-1.6364.8127-9.7507-.6873-10.3952z"></path><path d="m222.3809 157.8809c-.0331.0598-.0544.1251-.0854.1859-.2778-.4481-.652-.6124-1.0035-.6605-.0872.0006-.171.0224-.2557.0385-.0258-.1026-.0761-.2-.1652-.2709-.2139-.1709-.5293-.1367-.7021.0791-.3506.4395-.8379.7686-1.3535 1.1162-.4629.3125-.9414.6357-1.3652 1.0781-.413.4697-.7375 1.0118-.9731 1.588-1.3542 1.2838-2.5484 2.7314-3.5464 4.3124-.1475.2334-.0771.542.1562.6895.083.0527.1748.0771.2666.0771.165 0 .3281-.082.4229-.2334.6701-1.0612 1.4384-2.0561 2.2812-2.9829-.0465.8707.1229 2.2342.2627 3.354.0557.4404.1045.834.1309 1.123.0055.061.0235.1176.0485.1699-.0458.0475-.0857.1039-.1324.1495-.6318.5322-1.3506.9307-2.1357 1.1836-.2627.084-.4072.3662-.3223.6289.0684.2119.2646.3467.4756.3467.0508 0 .1025-.0078.1533-.0244.9092-.293 1.7412-.7539 2.5-1.3936.5303-.5146.9814-1.1006 1.333-1.7285 1.3008-2.1641 2.1191-4.6357 2.3672-7.1807.0098-.3037.0723-.6006.1807-.8711.0322-.0742.085-.1367.1504-.1807.0674-.0439.1465-.0684.1533-.0732.1992.0283.3652.3711.4463.9141.0123.0841.0491.1559.0956.22-.002.0092-.0059.0178-.0078.027-.0566.2695.1172.5352.3877.5908.2666.0625.5352-.1162.5908-.3877.1025-.4912.2773-.9629.541-1.4414.0547-.124.1523-.2275.1865-.2549.0645-.0186.1387-.0176.2012.0039.0664.0225.123.0645.1553.1104.1494.2197.2471.4756.2842.7607.2129 1.2178.3223 2.4629.3271 3.7324.0811 1.2568-.0527 2.5098-.3975 3.7188-.1631.5557-.4512 1.0801-.834 1.5176-.3877.4424-.8564.7881-1.3945 1.0264-.252.1123-.3662.4072-.2539.6602.083.1865.2656.2969.457.2969.0684 0 .1367-.0137.2031-.043.6709-.2979 1.2568-.7295 1.7402-1.2822.4775-.5459.8379-1.2012 1.042-1.8975.3779-1.3232.5244-2.6904.4365-4.0312-.0039-1.2949-.1191-2.5977-.3379-3.8477-.0537-.418-.208-.8242-.4531-1.1855-.1621-.2236-.3857-.3906-.6494-.4824-.2607-.0889-.54-.0957-.8945.0166-.3262.1678-.587.4442-.7139.7372zm-4.875 8.3242c-.0461.0823-.1053.155-.1548.2351-.0129-.1046-.0245-.201-.0386-.3123-.1396-1.1191-.332-2.6523-.2412-3.3838.0374-.4176.1437-.825.2907-1.2152.0292-.0523.0468-.1071.0558-.165.1907-.4543.4498-.8767.7697-1.2408.334-.3486.749-.6289 1.1875-.9248.1446-.0975.2901-.1965.4345-.2986-.0385.189-.0637.3778-.0693.5613-.2314 2.3661-1.0009 4.6933-2.2343 6.7441z"></path><path d="m111.5518 145.3008c-.1343-.0537-.2681-.0771-.4067-.0762-.1416.002-.2803.0332-.4058.0898-.1313.0576-.252.1455-.3398.2441-.1001.1064-.1743.2305-.2207.3672-.0894.2617.0781.5361.3398.625.0513.0176.105.0254.1582.0254.2173 0 .4321-.1377.5039-.3477.2529.1025.5469-.0215.6499-.2783.1025-.2558-.0225-.5468-.2788-.6493z"></path><path d="m110.7578 64.4512c.3574.8804.917 1.6865 1.626 2.3364.4043.3574.9004.5879 1.4355.666.1294.019.2588.0288.3892.0288.4082 0 .8228-.0947 1.2485-.2983.5713-.3926 1.0107-.9385 1.2588-1.5469.7998-1.6157 1.2773-3.3496 1.416-5.1519.0215-.2754-.1846-.5156-.459-.5371-.2666-.0161-.5166.1841-.5371.46-.1299 1.6743-.5732 3.2842-1.3311 4.8179-.1885.46-.5039.8521-.8413 1.0923-.312.1455-.6572.1953-.9995.146-.3418-.0503-.6592-.1973-.9111-.4199-.5933-.5439-1.0664-1.2251-1.3804-1.9966-1.2363-2.5884-2.1621-5.3247-2.751-8.1333-.0566-.2705-.3228-.4424-.5918-.3867-.2705.0566-.4434.3218-.3867.5918.6051 2.8866 1.5567 5.6991 2.815 8.3315z"></path><path d="m127.8301 116.8652c1.9541 0 3.9014-.2324 5.6729-.7031.2666-.0713.4248-.3447.3545-.6123-.0713-.2656-.3359-.4268-.6123-.3545-6.457 1.7168-15.7568.0537-17.5918-4.5146-.5361-2.29-.8301-4.6426-.8726-6.9922-.0049-.2764-.1953-.5078-.5093-.4912-.2759.0049-.4956.2334-.4907.5088.0439 2.4209.3462 4.8438.9209 7.2744 1.5493 3.8681 7.3686 5.8847 13.1284 5.8847z"></path><path d="m209.3125 177.7324c-.2432.1318-.333.4355-.2012.6777 2.2568 4.1582 1.752 7.8799-1.6885 12.4463-3.6367 4.8242-9.2314 7.0215-13.2852 8.0156-5.0869 1.2441-38.3564 2.3057-50.0635 1.2852-6.9909-.6085-11.1456-.4119-15.9932.2054-1.4197-4.863-1.7974-7.3732-1.248-12.222.005-.0439-.0048-.0849-.0109-.1267 2.2645-1.0285 4.4288-2.3228 6.4894-3.6516 1.5801-1.0234 3.0879-2.1865 4.5449-3.3115 1.1641-.8984 2.3682-1.8271 3.5928-2.6709 5.2598-3.627 15.7725-7.3564 21.627-8.2637.1504-.0146 15.0449-1.3799 23.4824-.7236.2695.0449.5166-.1836.5371-.459.0215-.2754-.1836-.5166-.459-.5371-8.4639-.6646-23.2579.6866-23.6675.7261.0014-.1423-.0171-.286-.0698-.4273-.2295-.6182-.9434-1.0898-1.5518-1.2842-2.9665-.9271-6.036-.6813-9.0842-.1166-.045-.0615-.1-.1163-.1727-.1529-2.9307-1.4775-9.3857-12.2695-11.5059-15.8154l-.3994-.666c-2.2341-3.7302-3.8289-6.9809-4.3665-10.6246 1.0652-9.251 2.2466-18.758 5.1839-27.7455.2236-.6865.459-1.3691.6934-2.0527.8496-2.4697 1.7285-5.0234 2.0615-7.6919.1211-.9458.1758-1.9116.2295-2.8452.1104-1.9243.2148-3.7417.8389-5.4604.1504-.4116.3301-.8179.5098-1.2236.4512-1.0225.9189-2.0796.9482-3.2554.0068-.2764-.2119-.5059-.4873-.5127-.0049 0-.0088 0-.0127 0-.2705 0-.4932.2158-.5.4873-.0244.9785-.4316 1.9004-.8633 2.8765-.1885.4263-.377.853-.5342 1.2861-.2938.8083-.4689 1.6412-.5959 2.4799-.5035-1.1746-1.0868-2.3619-1.6971-3.6-1.6553-3.3589-3.5322-7.1665-4.4287-12.1143-.4238-2.4014-.4443-4.8364-.0605-7.2393.5125-3.3087 1.3309-7.8142 1.9252-10.1786l9.0856 2.2465c1.4443.2866 2.8418.772 4.1338 1.4307 1.7363.9893 3.2324 2.7349 4.5752 5.3359 4.5381 8.7651 4.5215 17.625 4.0293 28.3613l.1904 2.2646c.1875 6.3027 2.3965 12.3154 4.5332 18.1299 1.8594 5.0605 3.7832 10.293 4.3506 15.6758.0273.2568.2441.4473.4961.4473.0176 0 .0352-.001.0537-.0029.2744-.0283.4736-.2744.4443-.5498-.0422-.4009-.1062-.7982-.1624-1.1968 7.9841 9.7634 17.71 17.8121 27.8264 25.8443.0918.0732.2012.1084.3105.1084.1465 0 .293-.0645.3916-.1895.1719-.2158.1357-.5303-.0811-.7021-.0018-.0014-.0035-.0029-.0054-.0043l2.395-.4302c1.2051-.2178 2.5703-.4648 3.9189-.5879.5107-.0459 1.0264-.0742 1.541-.1025 1.4131-.0781 2.875-.1592 4.2744-.5977 1.8633-.585 3.4365-1.7451 4.958-2.8672 1.0137-.7471 2.0615-1.5195 3.1982-2.1143.4727-.2881 1.0322-.4199 1.5508-.4316.21.0059.4141.0811.5752.2139.1621.1318.2773.3174.3262.5225.0625.2686.3311.4424.6006.3721.2686-.0625.4355-.332.3721-.6006-.0977-.4189-.335-.7988-.666-1.0684-.3311-.2715-.751-.4277-1.1895-.4395-.0127 0-.0244 0-.0361 0-.7227 0-1.4316.1992-2.0244.5615-1.1768.6133-2.2568 1.4102-3.3008 2.1797-1.5225 1.123-2.96 2.1826-4.6631 2.7168-1.2812.4023-2.6162.4756-4.0303.5537-.5273.0293-1.0527.0586-1.5762.1055-1.3936.127-2.7822.3779-4.0068.5996l-3.2554.5848c-10.097-8.0405-19.7725-16.1351-27.5922-26.0135-.0356-.045-.0804-.0776-.1265-.1068-.8473-4.4032-2.403-8.673-3.9291-12.8259-2.1084-5.7383-4.29-11.6729-4.4736-17.8408l-.1914-2.2271c.501-10.8232.5137-19.8164-4.1377-28.8018-1.4336-2.7778-3.0586-4.6572-4.9883-5.7563-1.3955-.7114-2.8799-1.2271-4.3916-1.5264l-9.0827-2.2467c-2.2969-.5674-4.6719-1.1538-6.7949-2.2163l-.4395-.2129c-2.4961-1.1948-8.3428-3.9922-7.4932-15.4561.0057-.0803-.0123-.155-.041-.2247 1.3483-1.6326 2.9155-3.575 3.8002-5.6029.1678.1573.3671.2897.6031.3813.2637.1021.5527.1523.8418.1523.4238 0 .8496-.1079 1.1992-.3179.9492-.5688 1.418-1.5923 1.7812-2.5054.6553-1.6279 1.208-3.3184 1.6338-4.999.166-.5361.2412-1.0938.2227-1.6689-.0176-.3296-.1094-.6528-.2637-.9341-.1572-.2876-.3818-.54-.7275-.7744-.5659-.2614-1.1988-.326-1.8047-.2077.4895-2.4937.804-5.0342.9131-7.5765.124-3.0332-.3984-5.9937-1.5615-8.8179-1.4639-3.1826-3.7891-5.8799-6.7158-7.7954-9.8149-6.6406-21.3872-.085-21.5244-.0054-2.9438 1.9106-5.2695 4.6084-6.7324 7.8193-1.1387 2.7671-1.6753 5.8096-1.5527 8.8003.1096 2.5383.4242 5.0792.9136 7.5761-.6072-.118-1.2482-.0501-1.8868.2549-.2656.1909-.4878.4434-.6416.729-.1553.2871-.2446.6108-.2593.9419-.0186.564.0562 1.1221.2153 1.6343.4326 1.7041.9844 3.3945 1.6401 5.0225.3657.915.835 1.9395 1.7817 2.5059.3501.2104.7759.3184 1.2002.3184.2891 0 .5781-.0503.8418-.1528.2471-.0959.4562-.2345.6281-.4021.6385 1.9812 1.9023 3.9417 3.6507 5.6494-.0316.0897-.0466.1859-.0214.2849.6279 2.4771-.0288 8.0947-1.2109 10.3652-1.2529 2.4194-3.54 3.9204-5.2378 4.7534-2.1948 1.0771-4.6499 1.6836-7.0352 2.2725l-8.8247 2.187c-1.5352.3052-3.0195.8208-4.4331 1.542-1.9087 1.0879-3.5337 2.9658-4.9688 5.7407-4.8936 9.4575-4.3594 21.0376-3.9302 30.3428.004.0878.0364.1647.0794.2345-.0005.007-.0045.0123-.0047.0194-.186 6.2119-2.1392 12.208-4.0283 18.0068-1.3355 4.1-2.6976 8.3159-3.4758 12.6602-.0151.0116-.0332.0166-.0472.0302l-2.3354 2.2441c-8.067 7.7569-17.1708 16.4958-26.2446 23.8168l-3.2798-.5892c-1.293-.2334-2.6304-.4746-3.9722-.5928-.5308-.0488-1.0654-.0791-1.6001-.1084-1.4062-.0801-2.7344-.1543-4.0068-.5508-1.7002-.5332-3.1357-1.5918-4.6558-2.7139-1.0469-.7715-2.1289-1.5703-3.2783-2.167-.6299-.3848-1.3604-.5977-2.0991-.5781-.4282.0117-.8472.1689-1.1797.4414-.3315.2715-.5674.6514-.6636 1.0693-.062.2695.106.5371.375.5996.269.0635.5376-.1055.5996-.375.0469-.2031.1616-.3887.3232-.5205.1616-.1328.3652-.209.5635-.2148.5898-.0088 1.0894.1445 1.5894.4482 1.1104.5781 2.1606 1.3525 3.1763 2.1016 1.519 1.1211 3.0903 2.2803 4.9512 2.8643 1.3911.4326 2.8442.5146 4.249.5938.5229.0293 1.0459.0586 1.5669.1064 1.2983.1143 2.6128.3516 3.918.5869l2.4017.4315c-.0021.0016-.0041.0034-.0062.005-.2163.1719-.2524.4863-.0806.7031.0991.124.2446.1885.3921.1885.1089 0 .2188-.0352.3105-.1084 9.4497-7.5107 18.9561-16.6523 27.3433-24.7168l1.4283-1.3727c-.068.4794-.138.9585-.189 1.4411-.0293.2744.1699.5205.4443.5498.0181.002.0356.0029.0532.0029.2524 0 .4697-.1904.4966-.4473.564-5.3311 2.2515-10.5107 3.8833-15.5195 1.9106-5.8652 3.8862-11.9307 4.0771-18.2861.0029-.1031-.0331-.1946-.0841-.2758.0012-.0186.0093-.0352.0084-.0543-.4458-9.6641-.9512-20.6177 3.8193-29.8374 1.3433-2.5981 2.8403-4.3423 4.5552-5.3203 1.3115-.6689 2.709-1.1538 4.1763-1.4463l7.8785-1.9518c.4724 2.4717 1.0064 7.0111 1.3798 10.4767.2656 2.4209.1284 4.853-.4077 7.228-1.1685 5.1074-3.1318 8.9321-4.8633 12.3071-.5602 1.091-1.0795 2.1365-1.5662 3.1768-.0545-1.1273-.1802-2.2545-.507-3.3516-.1343-.4565-.3008-.9058-.4673-1.3535-.3672-.9878-.7139-1.9204-.6821-2.8892.0093-.2764-.207-.5073-.4829-.5161-.2534-.0044-.5068.2075-.5161.4829-.0386 1.1655.3594 2.2358.7437 3.271.1582.4253.3174.8525.4458 1.2886.5205 1.7471.5151 3.564.5098 5.4878-.0029.938-.0059 1.9082.0591 2.8623.1855 2.6953.9136 5.3291 1.6177 7.876.186.6719.3716 1.3428.5474 2.0146 2.3534 9.0227 2.9862 18.4017 3.4948 27.5372-.1017.0697-.1785.1755-.2062.3065-1.417 6.7012-4.8008 11.4248-8.3828 16.4268-2.7095 3.7822-5.5112 7.6934-7.5312 12.6309-.1045.2559.0181.5479.2734.6523.062.0254.126.0371.1895.0371.1968 0 .3838-.1172.4629-.3105 1.9751-4.8291 4.7422-8.6924 7.4185-12.4277 1.4097-1.9682 2.7855-3.897 4.0318-5.9186.0684.0648.1493.1174.249.1354 9.0498 1.6123 17.5972 3.1357 27.0386 3.5283 1.5908.0654 3.1489.0986 4.6782.0986 8.5754 0 16.218-1.0392 23.2429-3.1493.038.0638.0766.1309.1145.1942l.3984.6641c3.7384 6.2516 8.289 13.495 11.194 15.7211-.7937.1678-1.5857.3446-2.3717.525l-1.877.4268c-5.2031 1.1758-8.9609 2.0254-14.2988 2.0254-1.7412 0-5.3535-1.3486-5.4248-1.374-1.416-.416-2.5215-1.0166-3.5908-1.5977-1.5273-.8301-2.9707-1.6143-5.1006-1.7637-2.0381-.0625-4.0303.6367-5.584 1.9775-1.4863 1.291-2.7139 2.8262-3.6396 4.5469-.5975 1.0221-1.126 2.0895-1.6187 3.1713-.0288.0025-.0571-.0023-.0859.0055-1.6774.456-5.0363.535-9.2298.3464-.0226-.0038-.0453-.0029-.0686-.0035-10.6245-.4841-26.5623-2.6775-34.187-4.8302-2.4307-.6953-4.8071-1.627-7.105-2.5273-3.8086-1.4932-7.7471-3.0361-11.998-3.5225-.2734-.0303-.5225.166-.5532.4404-.0317.2744.1655.5225.4399.5537 4.1211.4707 7.8247 1.9219 11.7466 3.459 2.3193.9092 4.7183 1.8496 7.1963 2.5586 7.7604 2.1906 23.3541 4.3562 34.0598 4.8588 1.4249 5.101 1.9115 10.3589 1.4419 15.6387-9.2958 1.5535-18.3741 3.1149-28.4685 4.9742-12.7314 2.3447-25.332 4.2734-39.5 2.165-4.8901-.7246-10.3667-1.9629-13.9077-5.6523-1.9727-2.0537-3.1538-7.085-2.7485-11.7021.269-3.0654 1.2241-5.4082 2.6201-6.4268.2231-.1631.272-.4756.1089-.6992-.1621-.2217-.4761-.2715-.6987-.1094-1.6528 1.207-2.7275 3.7451-3.0264 7.1475-.373 4.25.5454 9.9023 3.0229 12.4834 3.75 3.9053 9.4258 5.1982 14.4824 5.9473 4.3369.6465 8.5225.918 12.6089.918 9.4072 0 18.2832-1.4424 27.2192-3.0869 15.4248-2.8418 28.4668-4.9883 43.5679-7.4736l6.6606-1.0967c1.642-.2707 3.2346-.763 4.7803-1.3954-.4905 4.682-.0972 7.2666 1.2855 12.0273-1.3813.1874-2.8311.4039-4.4339.6445-2.1719.3262-4.6221.6934-7.543 1.083-2.8193.376-7.6738-.1367-12.812-.6787-6.8677-.7256-14.6514-1.5469-20.2422-.6289-.4946-.0059-2.0547-.1357-2.4673-.8203-.1816-.3018-.1221-.7354.1768-1.2891.1313-.2432.0405-.5459-.2026-.6777-.2422-.1289-.5469-.04-.6772.2031-.479.8867-.5303 1.6543-.1533 2.2803.7773 1.2891 3.0728 1.3096 3.4087 1.2969 5.5327-.9033 13.2461-.0889 20.0522.6299 4.0708.4297 7.7246.8164 10.5371.8164.9355 0 1.7788-.043 2.5127-.1406 2.9258-.3906 5.3818-.7588 7.5586-1.085 7.6719-1.1514 11.8975-1.7832 21.1953-.9756 11.7607 1.0273 45.2529-.0537 50.3877-1.3105 4.2109-1.0322 10.0312-3.3242 13.8457-8.3848 3.7109-4.9258 4.2402-8.9707 1.7686-13.5244-.1332-.2432-.4388-.3311-.6781-.2012zm-109.6997-141.0166c-.0366-.2729-.2891-.4624-.562-.4292-.2734.0366-.4658.2881-.4292.562.0193.1451.0624.2914.0892.4371-.1021.0619-.1845.157-.2215.2807-.0737.2471-.2866.375-.4521.4395-.3662.1431-.8374.1064-1.1665-.0913-.6797-.4067-1.062-1.2554-1.3672-2.02-.6396-1.5884-1.1772-3.2354-1.606-4.9214-.1333-.4302-.1934-.8779-.1787-1.3242.0078-.1758.0562-.3506.1406-.5063.0825-.1533.2017-.2891.2637-.3442.4141-.1919.8857-.2339 1.3291-.1133.0862.0242.1714.0158.2531-.0057.0159.0732.0276.1475.0438.2205.0596.269.3228.4375.5967.3799.2695-.0601.4395-.3271.3799-.5967-.627-2.8262-1.0078-5.7261-1.1328-8.6172-.1167-2.8462.3945-5.7432 1.4712-8.3604 1.3765-3.0205 3.5752-5.5718 6.3374-7.3652.1108-.063 11.1396-6.3125 20.4482-.0142 2.7754 1.8169 4.9756 4.3691 6.3535 7.3623 1.0986 2.6709 1.5957 5.4893 1.4775 8.3765-.123 2.8965-.5039 5.7964-1.1318 8.6182-.0596.2695.1104.5366.3799.5967.0361.0078.0732.0117.1084.0117.2295 0 .4365-.1587.4883-.3916.0161-.0724.0277-.1462.0435-.2188.0814.0211.1667.0291.2543.0039.4424-.1201.9131-.0786 1.25.0679.1436.1016.2637.2368.3496.3931.083.1519.1328.3276.1416.4961.0146.4531-.0459.9014-.1855 1.356-.4229 1.6621-.9609 3.3091-1.6006 4.8979-.3037.7627-.6846 1.6108-1.3662 2.019-.3281.1978-.7959.2339-1.166.0908-.166-.064-.3789-.1924-.4531-.4399-.0219-.074-.0621-.1361-.1107-.1898-.0067-.2076-.1372-.3977-.3473-.462-.2646-.083-.5439.0664-.624.3311-.7051 2.2915-2.5527 4.5273-4.1826 6.4995l-.2559.3096c-1.6025 1.9429-7.4727 4.2192-8.3662 4.2192-.0039 0-.0078 0-.0112 0-3.3911-.0264-6.645-1.0786-9.4111-3.0444-3.2727-2.3059-5.4675-5.4885-5.8713-8.5134zm-2.9649 23.7705c1.833-.8989 4.3071-2.5298 5.6846-5.1899 1.1765-2.2581 1.8388-7.1305 1.4653-10.1048.3568.2941.7227.582 1.1084.8538 2.9321 2.084 6.3838 3.2002 9.9731 3.228h.0229c1.1893 0 6.3549-2.0413 8.5844-4.0234-.5052 11.3416 5.4891 14.2446 8.0973 15.4927l.4238.2056c.2696.1349.5504.2412.8257.3619-1.5098 11.0646-10.4888 28.326-18.5635 28.326-9.624 0-18.5791-16.5757-19.9199-27.75-.0201-.1659-.1234-.2962-.2596-.3715.8699-.2972 1.7303-.6223 2.5575-1.0284zm-11.977 48.666c-.6909-2.499-1.4053-5.084-1.5835-7.6777-.0625-.918-.0601-1.8706-.0571-2.791.0005-.181-.0019-.3647-.0018-.5468.1328-.0431.2533-.1219.3124-.2604.6021-1.4146 1.3301-2.8335 2.1016-4.3359 1.7583-3.4272 3.752-7.311 4.9487-12.5425.5605-2.4844.7041-5.0273.4268-7.5576-.3779-3.506-.9203-8.1104-1.4019-10.6091l.0068-.0017c1.3195-.3259 2.6608-.6663 3.9809-1.0823-.0353.0795-.0579.1653-.0468.2581 1.3677 11.3984 10.4062 28.6309 20.9131 28.6309 9.1739 0 17.9622-18.4285 19.5144-28.9164 1.3987.5317 2.8432.9218 4.2753 1.2816-.6282 2.498-1.4424 7.0389-1.9435 10.2676-.4004 2.5107-.3789 5.0571.0645 7.5708.9219 5.0879 2.8311 8.9619 4.5156 12.3804.8271 1.6777 1.6084 3.2622 2.1875 4.8218.0383.1027.1072.1839.1917.2404-.0335.4554-.0605.9101-.0862 1.3607-.0527.9165-.1074 1.8643-.2236 2.7769-.3203 2.5664-1.1816 5.0703-2.0146 7.4922-.2363.6885-.4736 1.377-.6992 2.0674-1.2113 3.7067-2.1213 7.4944-2.853 11.311-.0504-.0214-.103-.0397-.1607-.0434-3.5674-.2285-7.168-.8291-10.6504-1.4092-4.3213-.7207-8.791-1.4658-13.2622-1.5146-3.564-.0381-7.0776.3604-10.479.7471-5.2705.5986-10.2471 1.1641-15.4214.2549-.0067-.0013-.0129.0012-.0197.0002-.4838-3.4054-1.1104-6.7972-1.9833-10.1447-.1774-.6771-.3644-1.3529-.5514-2.0287zm26.6631 43.8789c-9.3501-.3887-17.8461-1.8987-26.8357-3.5005 1.4763-2.5052 2.7261-5.191 3.5746-8.2892.0812.0566.1751.0964.2806.0964.0093 0 .0186 0 .0278-.001.2759-.0146.4868-.251.4717-.5264-.3331-6.0798-.6747-12.2884-1.4955-18.4578 5.212.8596 10.3913.2797 15.4018-.2892 3.3716-.3818 6.8574-.7852 10.3555-.7402 4.394.0479 8.8247.7871 13.1089 1.501 3.5068.585 7.1328 1.1895 10.75 1.4209.0107.001.0215.001.0322.001.0076 0 .0141-.0038.0217-.0042-.9348 5.0878-1.5714 10.2155-2.1556 15.274-.0734.1002-.1117.2269-.0946.36.0081.0616.0232.1203.0319.1817-.049.426-.0994.8544-.1481 1.2792-.0312.2744.166.5215.4404.5537.0186.002.0381.0029.0576.0029.0021 0 .004-.0012.006-.0012.7352 3.0535 2.1204 5.7819 3.5225 8.196-8.1078 2.4024-17.0604 3.3719-27.3537 2.9429zm9.5166 35.8458-6.6611 1.0967c-4.8679.8012-9.5145 1.567-14.1035 2.3323.4327-5.2065-.0429-10.3886-1.4107-15.4253 1.1215.0422 2.1815.0646 3.1626.0646 2.1083 0 3.8486-.1043 5.0748-.3296-.0283.0682-.0632.1343-.0909.2026-.104.2559.0195.5479.2754.6514.0615.0254.125.0371.188.0371.1973 0 .3843-.1172.4634-.3115.6089-1.5 1.3315-2.9688 2.1567-4.3799.877-1.6289 2.0288-3.0693 3.4224-4.2803 1.3613-1.1758 3.0981-1.8086 4.8784-1.7344 1.8936.1328 3.1826.833 4.6738 1.6436 1.1152.6055 2.2686 1.2324 3.752 1.666.1553.0586 3.8193 1.4268 5.7412 1.4268 5.4492 0 9.4512-.9043 14.5186-2.0498l1.8809-.4277c4.1113-.9434 8.3623-1.9209 12.2734-.6943.416.1318.8262.4365.917.6787.0215.0596.0186.0977-.0137.1504-.0217.0356-.0291.0748-.0411.1129-6.1194 1.1602-15.807 4.6496-21.0273 8.2485-1.2461.8604-2.4609 1.7969-3.6348 2.7031-1.4424 1.1123-2.9326 2.2627-4.4766 3.2637-3.6679 2.3641-7.6504 4.6503-11.9189 5.3544z"></path><path d="m135.5 168.7402c.0684 0 .1367-.0137.2031-.043 1.6895-.75 3.4365-1.4375 5.1914-2.0439.2607-.0898.3994-.375.3096-.6357s-.374-.3994-.6357-.3096c-1.7822.6152-3.5557 1.3135-5.2715 2.0752-.252.1123-.3662.4072-.2539.6602.083.1865.2656.2968.457.2968z"></path><path d="m98.1567 173.7021c.0894.0654.1934.0977.2964.0977.1533 0 .3047-.0703.4028-.2031.1641-.2217.1167-.5352-.1055-.6992-4.373-3.2285-9.2485-5.5918-14.4897-7.0225-.2656-.0713-.5415.085-.6143.3506-.0728.2666.0845.541.3506.6143 5.1221 1.3984 9.8858 3.707 14.1597 6.8622z"></path><path d="m90.0234 114.7949c1.6738.6758 5.0767 1.5703 8.979 1.5703 3.9253 0 8.3564-.9053 12.0371-3.8486.2153-.1729.2505-.4873.0781-.7031-.1724-.2139-.4868-.25-.7031-.0781-6.1846 4.9463-15.5605 3.9326-20.0161 2.1318-.2563-.1006-.5474.0215-.6509.2764-.1035.2558.0201.5478.2759.6513z"></path><path d="m5.1826 167.6455c.4785.5449 1.0801.9873 1.7393 1.2803.0659.0293.1353.043.2026.043.1919 0 .3745-.1104.4575-.2969.1118-.2529-.0015-.5479-.2539-.6602-.5283-.2344-1.0103-.5898-1.394-1.0254-.3823-.4375-.6709-.9619-.834-1.5146-.3472-1.2109-.4814-2.4629-.3979-3.7539.001-1.2373.1094-2.4824.3257-3.7227.0347-.2646.1318-.5195.2734-.7285.04-.0557.0967-.0977.1611-.1191.0659-.0234.1367-.0244.1147-.041.1221.0635.2202.167.2964.334.2422.4355.417.9062.52 1.3984.0557.2705.3145.4482.5913.3877.27-.0557.4438-.3213.3872-.5908-.0018-.0088-.0054-.0168-.0073-.0256.0488-.064.0878-.1359.1006-.2214.0786-.5352.2505-.8857.3682-.9102.084.001.1636.0244.2305.0684s.1191.1074.1475.1738c.1147.2793.1768.5742.1865.9111.2456 2.5127 1.064 4.9844 2.3574 7.1348.3584.6406.8096 1.2275 1.3677 1.7666.7319.6143 1.5615 1.0742 2.4663 1.3701.0518.0166.104.0244.1553.0244.2104 0 .4067-.1338.4756-.3447.0854-.2627-.0581-.5449-.3203-.6309-.7832-.2549-1.501-.6543-2.1074-1.1611-.0547-.053-.0989-.1152-.1516-.1699.0259-.0535.0438-.112.0491-.1748.0259-.2988.0767-.708.1333-1.166.1387-1.119.3057-2.4812.2552-3.3256.8472.9304 1.6194 1.9293 2.2936 2.9945.0952.1504.2573.2324.4229.2324.0913 0 .1841-.0254.2671-.0771.2334-.1484.3027-.457.1548-.6904-1.0037-1.5852-2.2042-3.039-3.5643-4.3281-.2372-.5726-.5643-1.1107-.9811-1.583-.4087-.4248-.8867-.749-1.3496-1.0615-.5151-.3486-1.002-.6777-1.356-1.1182-.1733-.2158-.4873-.25-.7031-.0762-.0919.0739-.1434.1755-.1671.2825-.1039-.0184-.2039-.0384-.3309-.0452-.3036.045-.6599.2089-.9304.6559-.0242-.0464-.0414-.1002-.0667-.1452-.1479-.335-.4082-.6104-.8232-.8135-.2651-.0762-.5449-.0703-.8076.0195-.2622.0918-.4858.2578-.6543.4922-.2373.3486-.3916.7539-.4429 1.1514-.2227 1.2754-.3364 2.5781-.3364 3.8408-.0898 1.373.0566 2.7393.437 4.0654.2043.6933.5642 1.3486 1.0422 1.8945zm5.7534-8.4648c.644.7295 1.0449 1.666 1.1313 2.6533.0879.7051-.0996 2.2188-.2363 3.3232-.0159.1287-.0293.2412-.0439.3612-.0536-.0864-.117-.1644-.167-.2538-1.2251-2.0371-1.9956-4.3643-2.2246-6.6943-.0054-.2028-.0303-.4031-.0706-.6011.1453.1027.2915.2023.4368.3003.439.2969.853.5772 1.1743.9112z"></path></g></svg>