<svg xmlns="http://www.w3.org/2000/svg" viewBox="0 0 64 58"><g fill="#819d86"><path d="m32.1221 7.9761c.6055.6084 1.3691 1.0186 2.209 1.1846.2783.0552.5576.0825.8369.0825.5654 0 1.126-.1123 1.6553-.334.79-.3311 1.458-.8853 1.9307-1.603.4736-.7163.7217-1.5498.7197-2.4097 0-.5708-.1104-1.1274-.3281-1.6548-.2168-.5269-.5303-.9995-.9336-1.4048-.4023-.4033-.873-.7188-1.3984-.9365-.5205-.2163-1.0713-.3262-1.6357-.3262-.0039 0-.0088 0-.0127 0-.8564 0-1.6846.2534-2.3955.7324-.7114.479-1.2598 1.1523-1.5854 1.9473-.3267.7944-.4106 1.6606-.2427 2.5039.1668.8438.575 1.6109 1.1805 2.2183zm-.0127-4.3428c.2505-.6113.6719-1.1289 1.2188-1.4976.5449-.3672 1.1807-.5615 1.8379-.5615h.0098c.4336 0 .8555.084 1.2549.25.4033.167.7637.4087 1.0723.7183.3096.3115.5518.6748.7188 1.0801.167.4062.252.8354.252 1.2754v.0015c.002.6621-.1895 1.3042-.5537 1.856s-.877.9775-1.4834 1.2314c-.6055.2539-1.2656.3193-1.9102.1934-.6445-.1279-1.2305-.4424-1.6958-.9097s-.7798-1.0576-.9087-1.7075-.0647-1.317.1873-1.9298z"></path><path d="m62.0352 42.5596h-5.9732c5.4589-10.8475 6.4626-25.1097 6.4722-25.2554.0088-.1382-.0391-.2739-.1338-.375s-.2266-.1582-.3652-.1582h-2.4424c-.1504 0-.293.0674-.3877.1841l-12.9072 15.831c-.1748.2148-.1426.5293.0713.7041.2148.1729.5293.1436.7041-.0713l12.7568-15.6479h1.6631c-.242 2.7176-1.5914 15.2454-6.5529 24.7886h-2.7323c-.0332-.0068-.0684-.0107-.1035-.0107h-9.9092c-.2676 0-.4883.2109-.5.4785-.0107.2666.1895.4961.4561.5195 1.2725.1113 1.8906 1.1182 1.8906 3.0811.0132 2.6013.4766 4.762 1.3602 6.4801-2.5922 1.6053-5.4304 2.6499-8.4471 3.0931-3.1621.4668-6.3179.248-9.3853-.6416s-5.855-2.3984-8.2856-4.4844c-2.4297-2.085-4.3511-4.6182-5.71-7.5273-1.3794-2.9834-2.1011-6.3018-2.0879-9.5977-.0039-2.1787.312-4.3418.9312-6.4053.0396-.1118.0732-.2256.0923-.3096.7456-2.4194 1.8882-4.6689 3.3979-6.6914 11.9619 2.5381 24.0884 2.5161 36.0483-.0669.167-.0361.3047-.1553.3633-.3159.0596-.1606.0322-.3403-.0713-.4761-2.1631-2.8345-4.9902-5.168-8.1748-6.7485-6.3711-3.1602-14.2241-3.1592-20.5942 0-3.1846 1.5801-6.0112 3.9131-8.1743 6.7476-1.101 1.4321-2.004 2.9869-2.7398 4.6331-.1376-.6431-.3785-1.2659-.7099-1.8293-.4419-.752-1.0537-1.4131-1.769-1.9102-.7148-.4976-1.5454-.8403-2.4023-.9912-.8564-.1499-1.7529-.1108-2.5928.1128-.8521.2271-1.6289.6289-2.3091 1.1948-.6699.5576-1.2231 1.2686-1.5991 2.0562-.3765.7886-.583 1.667-.5962 2.5142-.0102.1525-.8831 15.1887 12.1923 18.715 1.4139 2.9495 3.3763 5.5286 5.8541 7.6556 2.54 2.1787 5.4531 3.7549 8.6587 4.6855 2.1108.6113 4.2622.9189 6.4282.9189 1.124 0 2.252-.083 3.3799-.248 3.1453-.4625 6.1039-1.5501 8.8069-3.22.3179.4788.6664.925 1.0651 1.3167 2.125 2.085 4.623 2.1377 4.8613 2.1377h.0156.7705c.1064-.0078 2.5693.0156 4.6777-2.0615 1.9111-1.8818 2.8809-4.8193 2.8809-8.7285 0-1.9873.6035-2.9648 1.9004-3.0781.2676-.0234.4678-.252.457-.5195-.0117-.2678-.2324-.4787-.4999-.4787zm-38.1119-28.7276c6.0952-3.0229 13.6099-3.0239 19.7046 0 2.8115 1.395 5.3311 3.4028 7.3291 5.834-11.4043 2.3525-22.9575 2.3525-34.3628 0 1.9991-2.4316 4.5186-4.4394 7.3291-5.834zm-21.2334 19.4121c-1.3374-4.0078-1.1079-7.6748-1.1045-7.7373.0117-.731.1846-1.4658.4995-2.1255.3145-.6582.7769-1.2524 1.3364-1.7188.5679-.4722 1.2158-.8076 1.9268-.9971.7007-.1875 1.4487-.2197 2.1626-.0938.7144.1255 1.4077.4111 2.0039.8267.5977.4155 1.1089.9673 1.478 1.5962.3701.6289.605 1.3457.6797 2.0742.0747.7271-.0098 1.4775-.2446 2.1699-.0248.0734-.0277.1475-.0189.2195-.6111 2.1121-.9263 4.2939-.9225 6.491-.0122 3.0693.5908 6.157 1.7444 9.0029-4.6672-1.506-7.8873-4.7521-9.5408-9.7079zm56.4878 13.3916c0 3.6201-.8633 6.3125-2.5674 8.001-1.7842 1.7695-3.9141 1.7891-3.9824 1.7891h-.001-.7832-.001c-.0547 0-2.3145-.0186-4.1846-1.8662-1.7178-1.6963-2.5977-4.3662-2.6162-7.9346 0-1.4941-.3398-2.46-.833-3.0762h7.7393c.0332.0068.0684.0107.1035.0107h7.9619c-.495.6163-.8359 1.5821-.8359 3.0762z"></path><path d="m57.1406 13.2114c0 .2764.2236.5.5.5s.5-.2236.5-.5c0-1.647-.4961-2.5107-.9346-3.2725-.4131-.7188-.8037-1.3979-.8037-2.7856 0-1.3882.3906-2.0698.8037-2.7915.4385-.7646.9346-1.6309.9346-3.2769 0-.2764-.2236-.5-.5-.5s-.5.2236-.5.5c0 1.3799-.3896 2.0601-.8018 2.7798-.4395.7661-.9365 1.6343-.9365 3.2886s.498 2.52.9365 3.2842c.4122.7168.8018 1.394.8018 2.7739z"></path><path d="m61.5342 13.2114c0 .2764.2236.5.5.5s.5-.2236.5-.5c0-1.6475-.5-2.5112-.9404-3.2734-.416-.7188-.8086-1.3979-.8086-2.7847 0-1.3872.3926-2.0688.8086-2.7905.4414-.7646.9404-1.6309.9404-3.2778 0-.2764-.2236-.5-.5-.5s-.5.2236-.5.5c0 1.3794-.3916 2.0591-.8066 2.7783-.4414.7666-.9424 1.6353-.9424 3.29 0 1.6553.501 2.521.9424 3.2852.415.7168.8066 1.3935.8066 2.7729z"></path></g></svg>