<svg xmlns="http://www.w3.org/2000/svg" viewBox="0 0 207 193"><path d="m40.8942 136.746c-3.6714-11.126-10.7417-21.178-18.6984-29.778-19.5807-21.1644-18.2968-54.1951 2.8678-73.7759 29.6003-27.3852 91.4544-31.2841 124.2874-7.8713 2.873 2.0487 5.581 4.4202 8.071 7.1125 14.049 15.1847 22.834 35.7943 29.475 55.386 9.453 27.8897 2.382 59.9667-20.631 81.2567-31.204 28.87-79.9041 26.977-108.7737-4.228-7.7274-8.352-13.2508-17.958-16.5981-28.102z" fill="#f4feff"></path><g fill="#819d86"><path d="m199.6025 68.0381c-3.6992-3.9233-10.1729-6.561-15.0537-6.123-4.9736.4409-11.2061 4.001-15.5098 8.8594-.0161.0181-.0221.0406-.0351.0603-.0392.0047-.0784.0043-.1172.0188-1.0508.3916-2.1514.5566-3.2734.498-1.1211-.062-2.1982-.3496-3.2197-.8628-1.0928-.4971-2.3828-1.0142-3.7393-.8882-.9004.105-1.7646.4429-2.4912.9702-1.29.8975-2.2549 2.2197-2.7178 3.7231-.4883 1.5996.335 6.5557.4766 7.3745-.1963 2.8433 1.0713 5.0884 3.3975 6.0146.6914.2749 1.4219.4072 2.1533.4072 1.483 0 2.9692-.5498 4.1624-1.5486.0588 1.4547.4774 2.9681 1.6364 3.6746.6963.4209 1.3838.5991 2.0586.5991 2.1846 0 4.2256-1.874 5.9453-3.4531 1.3516-1.2412 2.748-2.52 3.5879-2.2183.2588.0967.5469-.0371.6416-.2974.0947-.2593-.0381-.5464-.2979-.6411-1.4072-.5171-2.8906.8452-4.6074 2.4199-2.1094 1.9365-4.499 4.1304-6.8086 2.7363-1.5488-.9438-1.2461-4.5669-.7979-5.5581.1143-.2515.0029-.5479-.249-.6616-.248-.1128-.5479-.0024-.6611.2495-.1614.3563-.3122.9708-.3943 1.6913-1.5138 1.7917-3.9619 2.4813-5.9992 1.671-1.916-.7627-2.9502-2.6587-2.7656-5.0723.0029-.0415.001-.083-.0068-.124-.2465-1.4108-.785-5.1118-.5827-6.6265.1948.1614.4781.1603.6618-.0175.2363-.2275.7197-.2188 1.123-.1831 1.4932.1211 2.9658.4375 4.3467.9277.8311.3579 1.7041.623 2.6025.79.1777.0298.3584.0449.5391.0449.332 0 .665-.0508.9824-.1509.4902-.1558.9404-.4282 1.3047-.7871.1963-.1943.1982-.5107.0039-.707-.1934-.1963-.5098-.1982-.707-.0049-.252.249-.5645.438-.9033.5459-.3389.1055-.6992.1318-1.0459.0742-.8174-.1514-1.6182-.395-2.4102-.7354-1.4941-.5312-3.0527-.8657-4.6309-.9941-.4842-.0412-1.0623-.0341-1.545.2204.4479-1.0234 1.1594-1.9234 2.0861-2.5681.5967-.4331 1.2979-.707 2.0166-.791 1.1045-.1055 2.2451.3604 3.2031.7954 1.1279.5669 2.3379.8896 3.5967.959 1.0333.0583 2.0554-.0697 3.0445-.3594-.2595.7831-.3513 1.6754-.3082 2.398.0869 1.3965.2754 2.8555 1.0566 4.0679.0947.1484.2559.2295.4199.2295.0928 0 .1865-.0259.2705-.0796.2324-.1494.2998-.459.1494-.6909-.6562-1.02-.8193-2.3281-.8984-3.5879-.0557-.9224.1572-2.1978.6709-2.8511.0789-.1001.1087-.221.1017-.3391 4.0767-4.4567 10.012-7.8219 14.5712-8.2259 4.6016-.4053 10.7285 2.0908 14.2373 5.8125 3.0078 3.1968 8.2715 12.6484 6.8076 20.0132l-.0625.3418c-.0967.543-.1885 1.0566-.4473 1.4585-.6875 1.064-2.1553 1.2847-3.2021 1.1475-.9014-.1162-1.7578-.4365-2.6641-.7754-.4004-.1499-.8018-.2993-1.2178-.4351-1.2422-.375-2.5234-.6709-3.7969-.8789-1.8018-.333-3.8447-.709-5.7998-.1763-.4678.1279-.8662.3872-1.2168.6157-.4121.269-.7695.5015-1.1582.5015-.0137 0-.0283 0-.04-.0005-.2705 0-.4922.2148-.5.4863-.0078.2759.21.5059.4863.5137.7334.0234 1.2676-.3438 1.7578-.6631.3174-.207.6172-.4023.9346-.4888 1.7373-.4731 3.6582-.1177 5.3643.1968 1.2412.2026 2.4795.4888 3.6689.8477.3926.1279.7803.2729 1.167.4175.9199.3438 1.8711.6992 2.8857.8311.2402.0308.4775.0459.7109.0459 1.4795 0 2.792-.6084 3.4609-1.6436.3672-.5713.4805-1.2085.5908-1.8247l.0596-.3247c1.5343-7.715-3.9335-17.5676-7.0605-20.8913z"></path><path d="m176.7578 90.0791c-.1104.6729-.0801 1.3481.0879 2.0059.0576.2261.2607.3765.4844.3765.041 0 .082-.0049.124-.0156.2676-.0684.4287-.3403.3604-.6079-.1338-.5239-.1572-1.0615-.0703-1.5977.0869-.5337.2803-1.0356.5732-1.4897.7441-1.1367 1.75-2.1094 2.9004-2.8081.585-.3394 1.252-.5249 1.9111-.5371.3496.0054.6963.0981 1.002.2676.3076.1709.5703.416.7539.7017.1768.2856.2646.6133.252.9502-.0107.335-.1191.6558-.3154.9277-.1621.2241-.1113.5366.1133.6982.2217.1597.5361.1108.6973-.1133.3135-.4341.4873-.9463.5049-1.479.0186-.5332-.1201-1.0557-.4062-1.5181-.2773-.4312-.6631-.791-1.1143-1.042-.4492-.249-.958-.3848-1.4883-.3931-.8457.0151-1.6797.2476-2.4209.6772-1.2852.7808-2.4014 1.8594-3.2275 3.123-.3703.5733-.6135 1.2037-.7219 1.8736z"></path><path d="m203.4727 94.7739c-.2441-.124-.5469-.0269-.6719.2192-1.1426 2.2451-3.2432 5.1289-5.3633 6.5098-.3086.2012-.6338.3799-.958.5596-.71.3916-1.4443.7969-2.0273 1.4287-.7178.7812-1.3174 2.6221-1.7988 4.1016-.1973.6045-.4424 1.3574-.5234 1.4814-.4805.4824-1.2676.5117-2.1006.543-.8701.0322-1.8555.0693-2.624.665-.2256.1738-.4033.3867-.5762.5928-.1201.1436-.2373.2881-.3711.4023-.2061.1768-.7568.2646-1.2002.3359-.4688.0752-.9121.1465-1.2607.3213-.7578.3789-1.1494.9707-1.5283 1.5439-.2646.3994-.5137.7773-.8701 1.0654l-.1045.0771c-.5771.4609-1.2881.6934-2.043.6602-.7373-.0352-1.4365-.3379-1.9609-.8428-1.0175-1.0316-1.8552-2.1965-2.5493-3.3915.0163-.1045.0079-.2136-.0464-.3135-.1587-.2927-.3623-.5776-.5898-.8583-1.7534-3.5249-2.2971-7.04-2.248-8.0313.0234-1.1738.459-2.3105 1.2266-3.1982.1797-.209.1572-.5254-.0518-.7061-.209-.1787-.5234-.1572-.7061.0518-.918 1.0645-1.4404 2.4258-1.4678 3.8184-.0443.8856.307 3.4925 1.4375 6.439-1.409-.9849-3.3021-1.8785-5.7031-2.6656-1.6729-.5479-3.417-.8936-5.1045-1.2285-1.0322-.2041-2.0996-.416-3.1328-.6719-3.3206-.8047-6.4863-2.111-9.4131-3.877 2.4179-2.4501 4.5551-5.2526 6.1152-8.4804.1201-.249.0156-.5479-.2324-.668-.248-.1182-.5479-.0161-.668.2324-4.0664 8.4141-12.2412 13.9072-18.9082 17.752-1.877 1.083-3.8203 2.1426-5.7002 3.168-5.835 3.1816-11.8682 6.4717-16.918 10.9717-1.3955 1.2471-2.7266 2.5938-4.0596 3.9443l-7.6113 7.7139c-.1938.1973-.1919.5137.0049.707.0257.0256.0576.0386.0869.0574-1.4741 8.0734-2.0071 16.3763-2.5151 24.4153-.3062 4.8457-.623 9.8574-1.1416 14.7383-.1669 1.1367.0189 2.29.4911 3.3274 1.2115 3.6517 6.0434 6.0021 7.4489 6.2273 3.6475.584 7.3662 1.4932 10.9629 2.373 3.6152.8838 7.3535 1.7979 11.0391 2.3887.0027.0004.0055.0002.0082.0006.7628.3587 1.5597.6285 2.3365.8773.9824.3154 1.9971.6416 2.9326 1.1719.2441.1396.5361.1426.7939.1455.085.001.2148.002.29.0137.0225.0469.0342.0996.0342.1514 0 .0713-.0225.1436-.0146.1436-.0684.0703-.1465.124-.2559.168-.7051.3213-5.4639.2588-8.6426.1104l-29.1108.002c-.6865-.0625-1.3481-.3037-1.9141-.6992s-1.0215-.9336-1.3218-1.5664c-2.2607-4.5293-2.8135-7.2949-3.7285-11.8779l-.3794-1.8848c-1.606-7.8457-1.9126-16.0049-2.209-23.8955-.2485-6.5947-.5054-13.4131-.4526-20.126 0-1.8838.0796-3.8535 1.0146-5.3867.6294-.9199 1.394-1.7295 2.2935-2.4238l7.8379-6.7061c.1338-.1143 13.4741-11.5498 19.8345-15.4834l1.21-.7422c4.2422-2.5908 8.6279-5.27 10.5527-9.8403 1.7134-4.0638 1.2493-8.3112-1.2175-11.4134.1456-.5853.2968-1.1699.4323-1.756.8516-3.5332 2.0537-7.5986 4.5127-10.9634.6943-.9458 1.4785-1.8281 2.2461-2.6934.6064-.7275 1.2861-1.3989 2.0088-1.9854 2.4463-1.8599 6.5186-1.127 9.4717.4229.1315.0684.2786.0685.4081.0196 1.2414 1.5327 2.6884 3.4342 4.6036 6.0253.166.2227.4805.269.6992.1045.2227-.1641.2695-.4771.1055-.6992-6.3623-8.6079-7.6484-9.7451-13.0586-14.5327-1.293-1.144-2.8223-2.4976-4.6982-4.1968l-6.5361-6.5762-19.3389-17.4746-.7295-.6646c-.8828-.8022-1.7949-1.6313-2.6562-2.4771-1.7529-1.7017-3.4502-3.5508-5.0918-5.3389-3.6914-4.0215-7.5083-8.1792-12.2603-11.0142l-2.4795-1.4727c-5.731-2.4917-10.8223-3.7144-15.5654-3.7378-3.7737-.003-10.7273.6489-15.0413 5.3271-7.5278 8.1562-4.6812 23.1704-3.0928 27.7798.6582 2.0059 1.4263 4.0015 2.2871 5.9414.9932 2.1094 2.1265 4.1807 3.3652 6.1523 5.772 9.408 13.7218 18.8622 23.0147 27.4262-.618-.0551-1.2346-.1028-1.8448-.1464l-.8252-.0601c-9.6958-.7202-20.0156-2.6709-30.6992-5.8047-.6768-.1587-1.3164-.4282-1.8784-.7852-.4937-.3545-.9517-1.0361-1.4365-1.7583-.9131-1.36-2.0505-3.0428-4.071-3.3676-.1274-.4846-.2576-.9675-.3801-1.4561-.2739-1.0293-.6152-2.3101-1.4966-3.2231-1.2227-1.2656-3.1807-1.6348-5.9839-1.1279-1.8262.3286-3.6401.8101-5.3926 1.4312-.4058.1445-.8101.2979-1.2139.4512-1.2227.4644-2.4868.9438-3.769 1.1514-5.0859.8267-14.1387-3.1475-14.5864-3.3491-.0142-.0073-.0293-.0146-.0444-.0205-.1646-.0679-1.6333-.6602-2.6338-.5454-1.8599.2031-3.3198 1.9531-3.3247 3.9854 0 3.1094 2.1416 6.207 5.728 8.2866 1.4941.8662 3.1035 1.5298 4.6592 2.1714 1.4883.6138 3.0269 1.2485 4.4331 2.0518 1.8423 1.0552 3.5322 2.4395 5.166 3.7783.8398.6885 1.7085 1.3999 2.5942 2.0649 7.1509 5.3472 15.7568 7.9502 23.1978 9.7817.4214.1357 42.2798 13.6592 53.7236 19.1328.0698.0332.1431.0488.2153.0488.1865 0 .3657-.1045.4517-.2842.1191-.249.0137-.5479-.2354-.667-11.5044-5.5029-53.4263-19.0464-53.8823-19.1919-1.2081-.2975-2.4478-.6179-3.704-.964 1.4444-4.7399 3.3954-10.7877 5.7538-15.8856.0198-.0428.0244-.0875.0316-.1319 9.9526 2.7825 19.6013 4.5479 28.7033 5.2242l.8286.0605c2.0908.1494 4.2524.3042 6.2505.8882 2.0728.6729 4.0537 1.6128 5.8999 2.8022 3.894 2.3433 8.7344 5.6616 11.6265 10.5669.0933.1582.2598.2461.4312.2461.0864 0 .1738-.0225.2534-.0693.2378-.1401.3169-.4468.1768-.6846-3.0059-5.0986-7.9771-8.5117-11.959-10.9077-.7676-.4945-1.566-.9368-2.3802-1.3486 3.2003.8223 6.3668 1.688 7.9027 2.2221.0542.019.1094.0278.1641.0278.207 0 .4004-.1294.4722-.3359.0908-.2607-.0469-.5454-.3081-.6362-3.2059-1.1152-12.327-3.3726-15.6792-4.1169-9.3376-8.5654-17.3189-18.0361-23.0996-27.4587-1.2202-1.9424-2.334-3.978-3.3057-6.0405-.8423-1.8994-1.5981-3.8633-2.2485-5.8447-.0591-.1719-5.5581-17.6406 2.8799-26.7827 4.0547-4.397 10.6665-5.0591 14.3013-5.0054 4.605.0229 9.5674 1.2183 15.1152 3.626l2.4224 1.4434c4.6265 2.7598 8.3931 6.8633 12.0356 10.8315 1.6509 1.7983 3.3584 3.6582 5.1304 5.3784.8071.7922 1.6521 1.564 2.4783 2.3149-3.7079 5.4365-6.6619 11.4438-8.3918 17.0221-.7657-.9976-1.5439-1.9868-2.3453-2.9596-1.0957-1.3271-2.2314-2.6387-3.3691-3.9521-1.9343-2.2336-3.8947-4.5005-5.6723-6.8751.0829-.1097.1243-.25.0956-.3954-.4883-2.4707-.4624-4.9707.0767-7.4307.0591-.2695-.1113-.5361-.3813-.5952-.2715-.0615-.5361.1108-.5952.3813-.476 2.1713-.5498 4.3714-.2672 6.5593-1.9408-2.7779-3.5836-5.7183-4.603-8.9391-.083-.2627-.3608-.4087-.6274-.3257-.2632.083-.4092.3643-.3257.6274 2.1533 6.8047 6.9272 12.3169 11.5439 17.6475 1.1323 1.3081 2.2632 2.6133 3.3535 3.9341 6.8906 8.3657 12.4033 17.7603 17.7344 26.8447 4.0996 7.0015 8.3379 14.2412 10.1699 22.2051.5075 2.188.9487 5.0056-.0804 7.4584-1.6766 1.319-3.5623 2.4744-5.4215 3.6105l-1.2148.7451c-6.4268 3.9727-19.8257 15.459-19.96 15.5742l-7.8174 6.6895c-.9624.7412-1.7998 1.6279-2.5024 2.6562-1.0845 1.7773-1.1753 3.9033-1.1753 5.9258-.0527 6.7314.2046 13.5615.4536 20.167.2979 7.9316.606 16.1328 2.2285 24.0596l.3784 1.8799c.8994 4.5039 1.4937 7.4795 3.8101 12.1191.3701.7803.9399 1.4541 1.6484 1.9492.708.4941 1.5366.7969 2.4409.877l29.1328-.001c.7002.0332 2.9092.127 4.9912.127 1.8115 0 3.5273-.0713 4.0674-.3164.2188-.0879.415-.2197.6318-.4531.1611-.2295.2461-.499.2461-.7783 0-.2764-.0869-.5527-.2373-.7666-.2559-.3896-.7295-.3945-1.0752-.3984-.1094-.001-.2734-.0029-.3125-.0146-1.0254-.582-2.0898-.9238-3.1191-1.2539-.5381-.1729-1.0576-.3398-1.5586-.5352.0898-.0557.1826-.125.2734-.2158.2139-.252.332-.5723.332-.9014s-.1182-.6494-.3438-.916c-.3496-.3809-.7959-.6592-1.2568-.7949-1.9697-.7441-4.0742-1.0801-6.1094-1.4053-2.4824-.3965-4.8271-.7715-6.9795-1.8193-.9941-.4834-5.9512-1.5879-7.5312-1.54-1.749.0557-3.4932-.1436-5.1504-.5693-1.0869-.375-2.0146-1.124-2.6123-2.1084-.0884-.1453-.1523-.302-.2247-.4548-.0449-.1382-.0934-.2753-.1249-.4172-.02-.09-.0683-.1626-.1265-.2253-.2206-.7081-.2991-1.4611-.189-2.2151.5234-4.9219.8408-9.9434 1.1479-14.7998.5205-8.2363 1.0591-16.752 2.6191-24.9805.0031-.0162-.0021-.0314-.0006-.0475l7.1759-7.2738c1.2764-1.292 2.5957-2.6279 3.9678-3.8535 4.9629-4.4229 10.9453-7.6855 16.7305-10.8398 1.8848-1.0283 3.834-2.0908 5.7217-3.1787 4.0125-2.3149 8.5577-5.2266 12.473-9.0019.0335.0393.0685.0781.1149.1064 3.0391 1.8447 6.3301 3.2041 9.7803 4.041 1.0547.2607 2.1328.4746 3.1768.6816 1.6572.3281 3.3721.668 4.9883 1.1982 3.3772 1.1066 5.7534 2.4415 6.9802 3.8942.8315 1.6459 1.9169 3.2938 3.3254 4.722.708.6816 1.6377 1.083 2.6172 1.1289.0645.0039.1289.0049.1934.0049.9131 0 1.8008-.3086 2.5059-.8701l.1074-.0801c.4922-.3975.8105-.8789 1.0918-1.3037.334-.5059.6221-.9424 1.1416-1.2012.2119-.1064.5986-.168.9727-.2285.625-.0996 1.2715-.2041 1.6914-.5635.1729-.1484.3311-.333.4883-.5205.1445-.1729.2803-.3359.4209-.4434.5146-.3994 1.2598-.4277 2.0488-.457.9443-.0352 2.0137-.0742 2.7715-.8359.2109-.2109.3604-.6318.7656-1.8779.4043-1.2402 1.0146-3.1133 1.584-3.7344.4727-.5117 1.1055-.8604 1.7744-1.2305.3467-.1914.6943-.3828 1.0215-.5977 2.4307-1.582 4.5938-4.7021 5.708-6.8936.1258-.2465.0272-.5473-.2189-.6728zm-160.9522-29.7422c.3514.523.6938 1.0185 1.0717 1.4376-1.2523-.2799-2.3981-.7593-3.0673-1.7101-.416-.6753-.7065-1.4131-.8706-2.2212l-.0552-.2075c-.0116-.0436-.0226-.0875-.0342-.1312 1.3246.4153 2.1542 1.6391 2.9556 2.8324zm-.6825 19.3107c-6.1368-1.7521-12.6367-4.2233-18.2037-8.3864-.8682-.6519-1.7285-1.3564-2.5601-2.0381-1.6655-1.3647-3.3882-2.7759-5.3032-3.873-1.4624-.835-3.0312-1.4824-4.5483-2.1079-1.5254-.6289-3.1025-1.2793-4.5386-2.1123-3.2749-1.8984-5.23-4.6729-5.23-7.4204.0034-1.5293 1.0723-2.8438 2.4351-2.9922.6396-.0767 1.7617.3193 2.1421.4756l.0054-.0137c.0005.0005.0015.001.002.001l-.0054.0132c.0205.0083.041.0151.0615.021 1.7925 1.0532 10.5205 4.1553 15.1079 3.4111 1.3828-.2236 2.6953-.7217 3.9648-1.2036.3975-.1509.7954-.3022 1.1938-.4443 1.7007-.6025 3.4619-1.0698 5.2349-1.3887 2.4497-.4429 4.1147-.1685 5.0869.8379.7017.7266.9932 1.8208 1.2485 2.7793.2241.8965.4624 1.7905.7007 2.687l.0483.1777c.1807.8945.5146 1.7417 1.0093 2.5435 1.29 1.8345 3.7075 2.2402 5.8721 2.4771.0642.0065.1266-.0015.1859-.0181.2205.0757.4384.1638.6628.2163.4109.1205.8178.2275 1.2277.3445-2.3831 5.1561-4.3477 11.2464-5.8004 16.0135zm57.1913-41.3658c1.6551-5.6284 4.636-11.7598 8.3984-17.3011l14.0338 12.6838c-4.3253 6.889-8.1006 14.1794-11.2341 21.6832-3.4546-5.7852-7.0929-11.5732-11.2089-17.0505.0021-.0063.0089-.009.0108-.0154zm14.7383 23.0576c-.0972-.1656-.1958-.3327-.2931-.4985.0816-.063.1465-.1497.1769-.2564.9463-3.3145 2.2461-6.5435 3.8633-9.5977.1289-.2441.0352-.5464-.208-.6758-.2461-.1294-.5469-.0361-.6768.208-1.5628 2.9534-2.8249 6.0709-3.7751 9.2678-.6611-1.1251-1.3276-2.252-1.9986-3.3818.0038-.0079.0126-.0111.0159-.0193 3.1436-7.6295 6.961-15.0402 11.3436-22.0395l4.7179 4.2641 6.5352 6.5757c1.8975 1.7202 3.4307 3.0767 4.7256 4.2227 3.1385 2.777 4.8762 4.3193 7.0472 6.8369-2.9032-1.1817-6.6456-1.679-9.2318.2876-.7852.6372-1.5107 1.3545-2.1484 2.1196-.7725.8701-1.5723 1.77-2.2949 2.7544-2.5645 3.5078-3.8037 7.6909-4.6797 11.3242-.8177 3.5381-1.8312 7.0577-3 10.4902-1.9359-7.8693-6.0863-14.9931-10.1192-21.8822zm10.5158 23.6022c.0559-.0527.1128-.1063.1404-.1837 1.0135-2.8657 1.9133-5.8019 2.6876-8.7608 1.8108 2.7417 2.0633 6.3056.6122 9.7457-.7482 1.7764-1.9228 3.2599-3.3306 4.5704.3814-1.8359.208-3.7164-.1096-5.3716zm-17.2395 91.8363c1.3955-.0645 6.2227 1.0293 7.0635 1.4385 2.2852 1.1133 4.8135 1.5176 7.2588 1.9082 1.9863.3174 4.0391.6455 5.9482 1.3652.3223.0957.6123.2764.8262.5088.0605.0723.0938.1621.0938.2549s-.0332.1826-.0625.2207c-.0557.0547-.1729.1025-.2959.1533-.1676.0688-.363.1534-.5372.2994-3.5319-.5851-7.1252-1.4577-10.6044-2.3082-3.6162-.8838-7.3545-1.7979-11.042-2.3896-.5996-.0956-2.2803-.8214-3.8324-2.0005 1.6962.4113 3.4339.6038 5.1839.5493z"></path><path d="m189.2305 85.4204c.6279-.7588 1.8008-.8462 2.6201-.689.6846.1309 1.3359.4014 2.0254.688.3574.1479.7148.2964 1.0771.4253 1.2725.4551 2.6104.6851 3.9512.6851.7354 0 1.4707-.0688 2.1973-.2075.2715-.0518.4492-.314.3975-.585-.0527-.272-.3184-.4463-.585-.3975-1.877.3589-3.8223.2085-5.625-.437-.3467-.1235-.6885-.2651-1.0293-.4072-.7061-.293-1.4355-.5962-2.2217-.7466-1.1367-.2173-2.6729-.0601-3.5771 1.0337-.1768.2129-.1465.5278.0664.7041.2109.1753.5263.1465.7031-.0664z"></path><path d="m184.3691 68.1265c.2637-.0796.4141-.3584.334-.6226s-.3613-.4136-.623-.3345c-.6914.208-1.3369.396-1.9443.5728-4.1318 1.2026-6.626 1.9282-10.3486 5.251-.2061.1841-.2236.5-.04.7061.0986.1108.2354.167.373.167.1182 0 .2373-.042.333-.127 3.5537-3.1719 5.8301-3.8345 9.9619-5.0366.6113-.1778 1.2587-.3668 1.954-.5762z"></path></g></svg>