<svg xmlns="http://www.w3.org/2000/svg" viewBox="0 0 217 203"><path d="m167.34 183.5204c3.79-4.279 6.751-9.006 8.893-13.985 13.749-31.955 11.428-88.3892-14.613-111.4554-9.762-8.6472-21.264-16.2087-30.899-24.9976-.247-.2256-.496-.4499-.748-.6726-27.892-24.7067-70.532-22.1243-95.2387 5.768s-22.1243 70.5326 5.768 95.2386c17.0989 15.146 34.4975 35.818 50.528 52.09.8365.849 1.7076 1.676 2.6131 2.478 21.5836 19.118 54.5786 17.12 73.6966-4.464z" fill="#f7fcf3"></path><g fill="#819d86"><path d="m66.063 34.2319-.1051-.7195c.2598-1.4348.0458-3.0535-.639-4.6516-.7192-1.6802-1.8071-3.1245-2.8594-4.522l-7.1245-9.4609c-1.0059-1.3364-2.0464-2.7188-2.7061-4.2544-.6616-1.5503-.9351-3.1973-1.2241-4.9414-.1914-1.1533-.3892-2.3467-.71-3.499-.3013-1.0928-.9678-1.6997-1.728-1.5923-.0095.0013-.0167.0074-.0261.0093-.0076-.0051-.0118-.0133-.0198-.0181-.2549-.1523-.5557-.2041-.8481-.1504-.2925.0562-.5532.2173-.7461.4702-.2471.3521-.4048.7646-.4497 1.1543-.2578 1.2935-.5181 2.5864-.7832 3.894-.3232 1.8677-.8013 3.7236-1.416 5.5039-1.1729 3.1318-3.2178 5.8857-5.2124 8.438-2.6362 3.3818-5.4194 6.7324-8.3164 10.0166-.1162.1788-1.0699 1.7147-.7602 3.0673-1.1851 3.8802-1.7684 19.1006-1.793 19.7662-.0366 2.6709.3423 5.3198 1.1274 7.8735.2036.6606.4355 1.3213.667 1.9819.2817.8032.5732 1.6343.8032 2.4438.1523.5366.2642 2.1943.3818 3.9492.1963 2.9131.4399 6.5386 1.0361 8.6216.7036 2.4629 1.0918 5.0635 1.4668 7.5786l.0928.6211c.4706 3.1505.8228 6.4554-.2272 9.3513-1.4012 1.8853-1.7586 4.3624-2.0985 6.763-.3291 2.3237-.6401 4.519-1.8145 6.1968-1.25 1.7881-3.3813 2.7471-5.4419 3.6748-6.3657 2.8535-13.6045 6.3613-18.9297 11.8945-1.3447 1.2969-2.5342 2.7559-3.5439 4.3525-3.0571 5.2539-1.1138 8.7676-1.0249 8.9229 1.4297 2.3916 4.3999 3.9287 7.7515 4.0098 2.9951.0762 5.9546-.8604 8.5586-1.6826 2.1035-.668 5.2671-1.7461 8.3271-2.7891 4.7334-1.6123 10.0869-3.4375 11.1484-3.6055l1.8003.1982c.9932.4561 1.8257 1.2324 2.3579 2.2051.6772 1.1572 3.5884 7.8926 3.6162 9.9521-.0332.5205.0352 1.0352.2046 1.5342.1108.3125.3115.5801.5791.7715.27.1934.5879.2979.9668.2988.4575-.0391 1.0908-.3291 1.5103-1.4893 1.0093-2.791.7388-5.7783.4766-8.667-.2134-2.3516-.4341-4.7832.0542-7.0527.1782-.833.4609-1.5273.7344-2.1982.3887-.9531.79-1.9395.856-3.2539.0576-1.04-.251-2.2822-1.2803-2.6934-.2626-.1645-1.2901-.7018-2.929-.4083-.0282-.0998-.055-.2004-.1062-.2929-.1392-.252-.3604-.457-.6992-.6055-1.2842-.3496-2.7686-.6768-4.146-.1133-.6138.2891-1.1738.6768-1.6455 1.1367-1.2466 1.0928-2.4194 2.29-3.4863 3.5596-.0657.0779-.0941.1708-.1049.2651-.4659.0239-.9351.0422-1.4108.0572-.4326.0127-.8662.0264-1.2778.0469-.3726.002-9.1606.0605-11.9126.8721-1.7886.6367-3.4365 1.5811-4.9131 2.8174-.3936.3584-.7812.6533-1.1558.9395-.7646.582-1.4873 1.1328-1.9976 2.04-.1353.2412-.0498.5459.1909.6807.2412.1367.5454.0498.6812-.1904.4087-.7275 1.022-1.1943 1.7314-1.7354.3916-.2979.7969-.6064 1.207-.9805 1.3701-1.1475 2.9146-2.0322 4.5649-2.6211 2.5908-.7627 11.5195-.8213 11.6304-.8232.4272-.0205.855-.0332 1.2822-.0469.6122-.0191 1.2291-.0417 1.846-.082-.3366 1.4178-.1577 2.5547.0031 3.5732.0782.4975.1512.9672.1537 1.4201-1.7136.4303-6.1685 1.9484-10.8534 3.5447-3.0547 1.041-6.2139 2.1172-8.3066 2.7822-2.5293.7998-5.4038 1.7178-8.2319 1.6357-2.3604-.0566-5.417-1.0127-6.9116-3.5127-.0718-.1289-1.7251-3.1904 1.0151-7.9014.958-1.5127 2.0962-2.9102 3.397-4.165 5.2144-5.417 12.3511-8.873 18.6318-11.6885 1.903-.8565 4.0297-1.8263 5.4576-3.5214 2.071.0619 4.1167.6324 5.9184 1.6523.0781.0449.1626.0654.2461.0654.1743 0 .3438-.0908.4355-.2539.1362-.2402.0518-.5449-.1885-.6807-1.7556-.9945-3.7285-1.5698-5.7399-1.7256 1.0769-1.8032 1.4023-4.0227 1.7077-6.1796.1674-1.1808.3318-2.3282.6058-3.3914 3.4124 2.0051 7.7467 3.0675 12.9118 3.1389.186.0024.3706.0034.5547.0034 4.5653 0 8.6862-.7612 12.2774-2.2496.3337 1.3687.7742 2.7087 1.2104 4.024.5635 1.6992 1.146 3.4551 1.4653 5.2139.1235.6729.1899 1.374.2544 2.0527.0479.5029.0957 1.0049.1655 1.5049 1.5605 11.3584-.8281 20.6445-2.2554 26.1924-.2485.9668-.4697 1.8271-.645 2.5996-.2578 1.1328-.5244 2.3057-.8457 3.4326-.3154 1.1006-.6982 2.208-1.0684 3.2793-.5435 1.5723-1.105 3.1973-1.4771 4.8604-.0605.2695.1094.5371.3784.5977.0179.0038.0353.0037.0529.0056l-.0031.5618c-.021 4.9697-.0527 12.4814-1.0737 15.8691-1.1978 4.0244-4.54 12.4873-6.752 18.0879-.5778 1.4632-1.056 2.6743-1.3912 3.5408-1.6111-.6914-3.2887-1.233-4.9968-1.5996 1.3591-5.8638 2.2281-15.9622 2.3186-17.405.0962-1.5742.1958-3.2021.6646-4.7129.2229-.7264 1.664-3.8301 2.4858-5.584.0781.1867.2467.3184.4458.3184.041 0 .083-.0049.125-.0156.2671-.0684.4282-.3408.3599-.6084-1.0283-4.0068-1.3301-8.125-.897-12.2383.0293-.2754-.1699-.5215-.4448-.5498-.269-.0332-.521.1689-.5493.4443-.3937 3.7389-.1957 7.4798.5844 11.1425-.019.0256-.0428.0464-.057.0762l-.103.2197c-1.2207 2.5977-2.6548 5.6836-2.9053 6.5-.5039 1.624-.6069 3.3135-.707 4.9463-.0913 1.46-1.103 13.0459-2.5942 18.4297-.3789 1.3691-1.001 2.7002-1.6021 3.9873-.314.6719-.6279 1.3438-.937 2.1016l-.4541 1.8984c-.1958.75-.1045 1.54.2573 2.2256s.9624 1.2061 1.7227 1.4756c.2979.084 2.4883.2871 4.4502.2871.9448 0 1.8369-.0479 2.439-.1777.5352-.0732 1.0303-.3037 1.4683-.7041.2734-.3037.4346-.6963.4536-1.1064.0186-.4102-.1064-.8164-.3164-1.0879l-1.1206-1.9912c-.2671-1.9795-.2412-2.8623.3994-4.7305.2031-.5918.9214-2.4111 1.8315-4.7148 2.2178-5.6162 5.5698-14.1035 6.7793-18.168 1.0625-3.5244 1.0938-10.8232 1.1162-16.1523l.0103-1.8574c.001-.1378-.0538-.2629-.1431-.3541.3293-1.181.7324-2.3508 1.127-3.4916.374-1.083.7612-2.2041 1.0845-3.3311.3286-1.1533.5986-2.3389.8652-3.5117.1675-.7383.3867-1.5898.6328-2.5459 1.4453-5.6191 3.8647-15.0244 2.2769-26.5781-.0674-.4863-.1138-.9746-.1602-1.4629-.0664-.6992-.1353-1.4229-.2661-2.1367-.332-1.8271-.9258-3.6182-1.5-5.3496-.7974-2.4053-1.6221-4.8921-1.7085-7.4263-.0023-.0732-.022-.1425-.0521-.2061 2.6326-8.9007 5.329-18.0979 6.433-27.5995.0522-.4556.1001-.9111.1484-1.3672.1406-1.3271.2856-2.6997.5249-4.0278.1304-.7153.2876-1.4253.4448-2.1353.1948-.8823.397-1.7944.5439-2.7095.5054-3.1201.3623-6.3442.1562-9.0874-.3708-4.8592-1.0832-9.7533-1.7722-14.4862zm-26.1587 88.7251c.4111-.3994.8794-.7246 1.3691-.9561 1.0635-.4346 2.3545-.1436 3.4043.1348.0688.0322.127.0859.1641.1523.0114.0209.0057.0452.0128.0672-.8785.3036-1.8835.8353-3.0094 1.7394-1.5206 1.22-3.17 1.6623-4.9043 1.8506.9195-1.0488 1.9002-2.0552 2.9634-2.9882zm2.5669 1.917c3.6289-2.9141 5.6792-1.5693 5.7603-1.5146.0381.0273.0796.0498.1235.0654.5601.2012.7158 1.0518.6787 1.7217-.0576 1.1475-.4102 2.0137-.7832 2.9297-.29.7109-.5894 1.4463-.7861 2.3652-.5205 2.4189-.293 4.9268-.0728 7.3535.2637 2.9072.5132 5.6543-.4209 8.2363-.0869.2412-.3257.8047-.6084.8311-.124-.001-.2432-.04-.3457-.1143-.0996-.0713-.1777-.1748-.2168-.2861-.1255-.3682-.1763-.7529-.1504-1.1807-.0312-2.4365-3.1372-9.4316-3.7451-10.4707-.6421-1.1738-1.6694-2.1182-2.8931-2.6572-.0464-.0215-.0962-.0342-.147-.04l-1.6111-.1776c-.0095-.501-.0804-.9864-.1609-1.4973-.1659-1.0481-.3293-2.1332.0751-3.5135 1.827-.2121 3.6334-.7104 5.3039-2.0509zm5.105 75.3242c.1064.1426.1606.3193.1528.4971-.0083.1797-.0786.3516-.1616.4473-.252.2275-.562.373-.9341.4248-1.7383.375-6.0801-.0039-6.4131-.0771-.4917-.1758-.897-.5273-1.1416-.9902-.2446-.4639-.3066-.999-.1714-1.5166l.4316-1.832c.2793-.6689.5869-1.3281.895-1.9873.6187-1.3242 1.2588-2.6934 1.6602-4.1426.0234-.0846.0463-.1747.0695-.2621.0044.001.0076.0043.0121.0052 1.6652.356 3.3005.8846 4.8696 1.5609-.0408.111-.0746.2053-.101.2819-.7114 2.0762-.7319 3.0918-.4312 5.2852.0088.0615.0288.1221.0601.1768zm2.7779-183.6328c1.3514 2.8572 2.9114 5.6533 4.4243 8.358 1.46 2.6099 2.9508 5.3001 4.2626 8.0436-.0126.0367-.0297.0713-.0341.1116-.6599 6.129-.7767 12.3344-.3541 18.4877-1.5825 1.4273-2.7056 3.2863-3.2541 5.3331-.0195.0059-.0396.0043-.0588.0128-.5684.2461-1.2925-.1221-1.6387-.5908-.4131-.6592-.6416-1.4189-.6636-2.2407-.1042-.9368-.0513-1.8755.151-2.7938.8026-1.0874 1.3033-2.3568 1.7538-3.5095.004-.0103.0022-.021.0055-.0314.0347.0021.069.0099.1039.0099.127 0 .2549-.0142.3809-.042.0342-.0078.0674-.019.0996-.0337.3936-.1797.6973-.5015.833-.8579.4233-.8223.6747-1.7071.747-2.6363.0407-.6191-.1972-.9022-.4542-1.0495.4921-1.757.1309-5.5411-.373-6.9979-.1587-.4521-.3467-.8965-.5566-1.3179-1.3916-2.8511-4.1377-4.5698-7.5552-4.7173h-.4019c-3.8989 0-6.8911 2.4395-8.4258 6.8696-.5567 1.6134-.4473 4.525.0098 6.1251-.0035.0013-.0067.0014-.0103.0028-.21.0981-.5537.3701-.4971 1.0894.069.924.319 1.8097.7218 2.5846.1572.4038.4609.7256.8545.9053.0173.0079.0356.0122.0534.0181.2233.6781 1.3436 2.8239 2.1609 4.0545-.0239.0809-.035.1661-.0141.2541l.0527.2222c.335 1.4023.5996 2.5098.2554 3.874-.0498.2212-.1367.4302-.2227.5723-.3433.4177-.8245.6782-1.3572.7473-.1244-.2586-.2603-.4994-.3831-.7126l-3.1353-5.4204c-.0444-.0774-.1097-.1314-.1813-.1738.4017-6.1516.0359-12.2934-.3143-17.9077-.0063-.0985-.0464-.1828-.0994-.2571 1.8121-2.2432 3.4057-4.6646 4.719-7.2341.2856-.5625.5732-1.145.8662-1.7383 1.3149-2.6641 2.6748-5.4185 4.4204-7.5107.0251-.03.0366-.0653.0535-.0987.1326-.0404.2673-.0725.3972-.1235.2832-.1128.543-.29.752-.5132.0635-.0679.113-.1474.1671-.2234.2762.274.5896.5027.8959.7097.187.144.3979.2505.6597.3252.0635.0136.1239.0173.1838.0213zm-8.8294 31.0742c.0093-.0035.0192-.0046.0285-.0083.2568-.1016.3823-.3921.2808-.6489-.1016-.2573-.3926-.3813-.6489-.2808-.1245.0498-.2573.0669-.3916.0454-.1333-.0742-.2378-.1963-.3135-.3828-.3623-.7026-.5757-1.459-.6348-2.25-.0029-.0366-.0039-.0664-.0034-.0913.1328.0068.2651.0254.394.0557.27.064.5376-.1055.6001-.3745.062-.269-.1055-.5376-.3745-.6001-.031-.0072-.0587-.0055-.0898-.0117-.0037-.0335-.0008-.0668-.0117-.1001-.4448-1.3628-.564-4.2573-.0688-5.6924.979-2.8267 3.0718-6.1963 7.4805-6.1963l.3804-.0005c3.0181.1304 5.4521 1.6455 6.6797 4.1602.1934.3877.3652.7939.5093 1.2046.5093 1.4722.77 5.1479.3291 6.4985-.0128.039-.0107.078-.0137.1172-.0533.0096-.1085.0083-.1611.0205-.269.0625-.4365.3311-.3745.6001.063.2695.334.4395.6001.3745.1265-.0293.2559-.0479.396-.0635.001.0259.001.0586-.002.0991-.0615.79-.2764 1.5469-.6597 2.2974-.0562.144-.1587.2617-.292.3354-.1323.0215-.2656.0044-.3916-.0454-.2554-.1006-.5474.0234-.6489.2808-.0371.0938-.0349.1899-.0161.2819-.0387.0433-.0733.0916-.0957.1488-.5439 1.3921-1.1606 2.9702-2.2881 4.0425-1.0449.9561-2.3984 1.4897-3.8076 1.5034-.0039 0-.0078 0-.0117 0-1.4316 0-2.8232-.4116-4.0098-1.1807-.3653-.3096-1.9046-3.0268-2.369-4.1387zm4.842 53.1744c-5.0942-.0706-9.3373-1.1232-12.6273-3.1179.1995-.5627.4512-1.0897.7641-1.5782.1103-.0516.2075-.1285.2568-.2502.0438-.1084.071-.2205.111-.3298.0098-.0256.0203-.0499.0257-.0764 1.0518-2.9377.7841-6.1695.337-9.2767.0496-.0132.0994-.0278.145-.0573.7749-.5044 1.7939-.6274 2.6973-.7358 3.8853-.4678 7.9033-.9502 11.8325-.6743 4.2703.3015 7.9871 1.5313 10.7755 3.5507-.7098 2.5205-1.4456 5.0209-2.1779 7.4957-.058.1968.0111.3998.1583.524.0479.7729.1528 1.5361.3021 2.2899-3.6464 1.5419-7.8782 2.2962-12.6001 2.2363zm20.3252-43.1675c-.1426.8867-.3413 1.7847-.5332 2.6528-.1597.7222-.3193 1.4443-.4521 2.1729-.2461 1.3647-.3931 2.7559-.5352 4.1011-.0483.4531-.0962.9062-.1475 1.3579-.1175 1.0109-.2625 2.0172-.4146 3.0221-2.3565-2.8928-4.5389-5.9589-6.478-9.1442-.1431-.2344-.4492-.3091-.6875-.167-.2358.1436-.3105.4512-.167.6875 2.1184 3.4787 4.5143 6.8272 7.1198 9.9548-.8401 5.0696-2.0683 10.0598-3.4305 14.9671-2.903-2.0027-6.6798-3.2274-10.9871-3.5312-4.0254-.2861-8.0908.2051-12.0259.6787-.8788.1061-1.9478.2539-2.8682.7619l-.0176-.1179c-.3799-2.5464-.7729-5.1797-1.4946-7.7056-.4162-1.4547-.6554-3.7636-.8298-6.0225.0945-.0507.1767-.1234.2234-.229 1.6162-3.6494 4.3579-7.6602 6.373-10.3828.1646-.2217.1177-.5352-.1045-.6992-.2207-.1646-.5342-.1177-.6992.1045-1.8315 2.4737-4.2493 5.9999-5.9233 9.3903-.0131-.192-.0266-.3882-.0391-.5748-.1323-1.9653-.2368-3.5176-.418-4.1558-.2383-.8384-.5347-1.6841-.8213-2.5015-.2275-.6484-.4551-1.2974-.6553-1.9453-.7539-2.4536-1.1187-4.9985-1.0835-7.5537.006-.1517.5525-14.4377 1.6025-18.9461.1247-.0909.211-.2309.211-.3972v-.4033c0-.0167-.0062-.0324-.0079-.049-.0009-.0193-.0059-.037-.009-.056-.0038-.0175-.0029-.0358-.0085-.0527-.2656-.7993.3457-2.0103.5591-2.3506 2.8667-3.2412 5.6631-6.6074 8.3115-10.0054 2.042-2.6133 4.1377-5.438 5.3647-8.7148.6362-1.8428 1.1279-3.751 1.458-5.6572.2627-1.2944.5229-2.5894.7871-3.9219.0317-.2651.1289-.52.2695-.7207.0312-.041.0762-.0688.1274-.0786.0474-.0107.1021-.001.1465.0264.0403.024.0841.0331.1273.0448-.2537.0228-.4555.2288-.4569.4889l-.0435 9.5728-.1367 1.0659c-.1412.6407-.1155 1.3091.0884 1.9807-.0072.0161-.0198.028-.0255.0452-.0498.1519-.1338.2939-.2427.4106-.1089.1162-.2446.2085-.3896.2666-.3892.1528-.7974.2476-1.2139.2812-.2749.0229-.48.2642-.4575.5396.0145.1764.1227.318.2684.3951-1.5552 2.066-2.7956 4.5701-3.9969 7.0038-.291.5898-.5771 1.1689-.8608 1.7271-1.4492 2.8359-3.2319 5.5015-5.2988 7.9219-.1792.21-.1543.5254.0557.7051.0942.0801.2095.1196.3247.1196.0815 0 .1599-.0255.233-.0646.4816 7.7505.9649 16.4504-.6768 24.7072-.0542.271.1221.5342.3926.5879.0332.0068.0659.0098.0981.0098.2339 0 .4424-.1646.4897-.4023.3998-2.0105.6658-4.0444.8476-6.0817l2.5704 4.444c.3979.6914.7192 1.3125.6211 1.9106-.0444.2725.1401.5293.4131.5742.0273.0044.0542.0063.0811.0063.2407 0 .4526-.1738.4932-.4194.0513-.3143.0297-.6181-.0292-.9099.7042-.1392 1.3417-.5049 1.8358-1.1102.1831-.2896.3145-.605.3867-.9258.3179-1.2597.1913-2.3216-.0495-3.4414 1.2408.6856 2.6224 1.0649 4.0515 1.0649h.0137c1.4866-.014 2.915-.5218 4.0842-1.4384-.0353.5482-.0248 1.0941.0354 1.6274.0239.958.3052 1.8931.834 2.7354.459.623 1.2437 1.1113 2.0649 1.1113.075 0 .1506-.014.226-.0225-.0118.0721-.0301.1425-.0405.2148-.0391.2734.1509.5269.4243.5659.0239.0034.0479.0049.0713.0049.2451 0 .459-.1797.4946-.4292.2942-2.0577 1.2234-3.9698 2.6406-5.468.0419.5163.0794 1.0331.129 1.5485.0249.2588.2422.4521.4971.4521.0161 0 .0322-.001.0483-.0024.2749-.0264.4761-.2705.4497-.5454-.6326-6.5832-.6273-13.2496-.0012-19.8379.0708.0367.1464.0659.2272.0659.0684 0 .1387-.0142.2051-.0444.252-.1133.3638-.4097.25-.6611-1.458-3.2295-3.2129-6.3667-4.9097-9.4004-1.4482-2.5888-2.9356-5.2621-4.2377-7.9793.0272-.0297.0628-.0486.0829-.0856.1313-.2427.041-.5464-.2021-.6777-.2563-.1382-.5186-.1289-.7085-.1226-.0791.0034-.1611.0078-.1709.0044-.1074-.0308-.2065-.0811-.3193-.1665-.5068-.3433-.9785-.6919-1.165-1.1328-.1426-.4678-.1621-.9683-.0493-1.4907l.1484-1.1709.0479-9.6348c.0012-.2346-.1631-.4235-.3812-.4783.0207-.0014.0415.0005.0618-.0034.0993.0681.2216.1035.3512.0828.231-.019.4961.416.6221.8706.3066 1.1016.5 2.2676.687 3.395.2862 1.7256.5816 3.5093 1.2911 5.1714.708 1.647 1.7852 3.0781 2.8267 4.4624l7.1245 9.4609c1.0166 1.3496 2.0674 2.7451 2.7393 4.314.7217 1.6855.8667 3.377.4087 4.7632-.0851.2562.0516.5303.3028.623.6745 4.6346 1.3652 9.4182 1.727 14.1534.2015 2.684.3422 5.8344-.1466 8.8525z"></path><path d="m51.6494 115.2529c-.2036-.1865-.5205-.1729-.7061.0322-.6392.7002-1.1963 1.4785-1.6567 2.3135-.1333.2412-.0454.5459.1968.6787.0762.043.1592.0625.2407.0625.1763 0 .3472-.0938.4385-.2588.4224-.7656.9336-1.4795 1.519-2.1221.1866-.204.1719-.5204-.0322-.706z"></path><path d="m34.397 112.4834c-.2642-.082-.5444.0625-.6274.3252-.0835.2637.0625.5449.3257.6279 1.7666.5596 3.5068 1.2412 5.1724 2.0244.0688.0322.1411.0479.2124.0479.188 0 .3677-.1064.4531-.2871.1172-.25.0103-.5479-.2397-.665-1.7057-.8028-3.4874-1.5001-5.2965-2.0733z"></path><path d="m45.7305 95.6133c-.0518.043-.0928.0942-.1221.1499-.0815.0415-.1523.106-.2026.1899-.1406.2378-.0625.5444.1748.6855.1479.0874.3149.1333.4858.1333.0142 0 .0283-.0005.0425-.001.1909-.0083.3604-.125.4365-.3003.0557-.1274.0752-.2681.0571-.4062-.0186-.1421-.0767-.2754-.168-.3857-.1762-.2124-.4911-.2427-.704-.0654z"></path><path d="m46.4033 60.2578c.1729.3794.5771 1.2676 1.4775 1.3687.02.001.0405.0015.0605.0015.2319 0 .4629-.0532.6729-.1548.2271-.1108.4253-.2778.5747-.4858.2324-.3271.4058-.6895.5073-1.0498l.7881-2.2739c.0903-.2607-.0479-.5454-.3091-.6362-.2612-.0889-.5459.0479-.6362.3091l-.7964 2.3013c-.0786.2773-.2026.5366-.3672.7681-.0518.0718-.1206.1299-.1987.168-.0791.0391-.1689.0522-.2192.0566-.27-.0308-.4971-.4639-.644-.7871l-.6338-1.3896c-.1147-.2515-.4111-.3618-.6626-.2476-.251.1147-.3618.4111-.2476.6626z"></path><path d="m52.5884 65.7959c1.2637-1.7944 1.8408-3.9858 1.625-6.1719-.0269-.2739-.2568-.4697-.5469-.4482-.2744.0273-.4756.272-.4482.5469.1924 1.9468-.3218 3.8994-1.4438 5.4922-.5542.7661-1.2949 1.3892-2.1421 1.8027-.8477.4136-1.7969.6084-2.7319.5786-.6489-.0278-1.2729-.2397-1.77-.5854-.6011-.5063-1.0591-1.166-1.3345-1.9336-.5854-1.3896-.9155-2.8584-.9814-4.3647-.0117-.2759-.2363-.4883-.5215-.4775-.2759.0122-.4897.2456-.4775.5215.0713 1.625.4272 3.2095 1.0488 4.6831.3247.9082.8857 1.7163 1.6572 2.3628.6885.4829 1.4966.7573 2.3389.793.0825.0034.165.0049.2476.0049 1.0234 0 2.043-.2349 2.9629-.6841.9939-.485 1.8631-1.2165 2.5174-2.1203z"></path><path d="m43.3179 75.0889c-1.043 1.522-2.1279 2.0205-3.3843 2.5977-.9839.4517-2.3672.1333-3.5898-.1484-.2466-.0566-.4873-.1123-.7188-.1602-.2744-.0601-.5356.1167-.5913.3872-.0566.2705.1167.5352.3872.5913.2251.0474.459.1011.6982.1562.8374.1934 1.7432.4019 2.6152.4019.562 0 1.1099-.0864 1.6167-.3193 1.3335-.6128 2.5928-1.1909 3.792-2.9409.1558-.228.0977-.5391-.1299-.6953-.2284-.1564-.539-.0973-.6952.1298z"></path><path d="m52.2427 76.3672c-.2412-.1372-.5464-.0498-.6812.1899-.1357.2407-.0503.5459.1899.6812 1.3672.7705 2.8462 1.2876 4.3984 1.5376.4399.0679.8818.1016 1.3232.1016 1.1528 0 2.2979-.23 3.3682-.6826.2544-.1074.373-.4009.2656-.6553-.1074-.2539-.4019-.3735-.6553-.2656-1.3091.5537-2.7461.731-4.146.5142-1.432-.2306-2.7992-.7091-4.0628-1.421z"></path><path d="m45.8135 34.1602c.1841.0488.3687.0972.5586.1304.4644.0776.9326.0605 1.396-.0483.1675-.042.3301-.0957.4927-.1499.1758-.0591.3511-.1191.5283-.1533.54-.0928 1.0884-.0112 1.5791.2378.5322.2705 1.0161.6221 1.4375 1.0459.0977.0977.2261.147.3545.147.1274 0 .2554-.0483.353-.1455.1953-.1948.1963-.5117.0015-.7075-.4971-.4985-1.0664-.9131-1.6943-1.2319-.6851-.3457-1.4453-.46-2.2095-.3296-.2314.0444-.4497.1157-.6675.189-.1377.0459-.2749.0923-.4111.1265-.3276.0781-.6616.0908-.9922.0342-.1577-.0273-.314-.0693-.4702-.1108-.3506-.0933-.7461-.1982-1.2129-.1602-.6069.0977-1.1812.354-1.6606.7412-.2144.1733-.248.4883-.0742.7031.1733.2148.4878.249.7031.0742.3433-.2773.7554-.4614 1.1509-.5264.2489-.0251.537.0545.8373.1341z"></path><path d="m172.9131 89.7393c-.1318-.2432-.4355-.3315-.6777-.1997-.2422.1323-.332.436-.1992.6782.7275 1.334 1.6152 2.5781 2.6396 3.6978.0986.1079.2334.1626.3691.1626.1211 0 .2412-.0435.3379-.1313.2031-.186.2178-.5024.0312-.7061-.9706-1.0601-1.8115-2.2384-2.5009-3.5015z"></path><path d="m178.5674 88.0693c-.1494-.2339-.459-.3027-.6904-.1558-.2334.1479-.3027.4565-.1553.6899.6777 1.0723 1.1816 2.2368 1.4961 3.4624.0586.2256.2617.3755.4844.3755.041 0 .083-.0049.124-.0156.2676-.0688.4287-.3413.3604-.6089-.3409-1.3266-.8858-2.5873-1.6192-3.7475z"></path><path d="m216.6436 111.8535c.0166-.8945-.29-1.7646-.8604-2.4473l-.0713-.0869c-.3633-.4297-.8584-.6748-1.2939-.8916-.6504-.3223-.918-.4893-.9434-.8428-.083-1.252-.8926-2.3691-1.543-3.2676-.1533-.2109-.2998-.4131-.4277-.6055-.3086-.4629-.3057-.9629-.3018-1.542.0039-.7383.0088-1.5747-.7363-2.2798-.1973-.1875-.5732-.3101-1.6865-.6396-1.1221-.333-2.8174-.8354-3.3818-1.3306-.4648-.4067-.7871-.9639-1.1289-1.5532-.1777-.3076-.3564-.6152-.5566-.9072-1.2754-1.8545-3.4395-3.3325-4.6162-4.0488-.2344-.1426-.5439-.0693-.6865.1675-.1436.2358-.0693.5435.167.687 1.8857 1.1475 3.457 2.5186 4.3115 3.7603.1846.2705.3506.5571.5156.8423.3672.6338.7471 1.2891 1.335 1.8042.7295.6396 2.4082 1.1372 3.7568 1.5371.5264.1562 1.1816.3506 1.2832.4072.4092.3872.4277.8403.4238 1.5479-.0039.6494-.0078 1.3848.4697 2.1025.1348.2021.2891.415.4502.6377.6055.835 1.291 1.7812 1.3545 2.75.0693.9609.8604 1.3535 1.4961 1.6689.3838.1904.7461.3711.9717.6357l.0684.084c.4189.502.6436 1.1387.6309 1.792-.0117.6543-.2588 1.2812-.6865 1.7559-3.7617 3.959-9.6396 5.2012-11.0156 5.2012-.0332 0-.0635-.001-.0967-.001-1.0186 0-2.0117-.3555-2.8018-1.0049-.2119-.1738-.5273-.1445-.7041.0693-.1748.2139-.1436.5283.0693.7041.9688.7949 2.1875 1.2314 3.4199 1.2314.0371 0 .0742.001.1172.001.9577-.0006 3.7598-.5023 6.7144-1.935-.7505.9151-1.358 1.8008-1.979 2.7123-.4893.7188-.9951 1.4619-1.5898 2.2363-2.8525 3.7173-4.2526 8.1968-5.8575 15.5072-.2889-.4977-.5792-.9946-.87-1.4916-1.6162-2.7539-3.2871-5.6016-4.4229-8.6201-1.0186-2.7305-1.6143-5.6787-2.1895-8.5283-.2167-1.0721-.4379-2.1539-.6802-3.2326.3531.0747.726.1408 1.1109.1408.7236 0 1.4443-.2217 1.9414-1 .1494-.2334.0811-.542-.1514-.6904s-.543-.082-.6904.1514c-.4668.7314-1.3135.5957-2.458.3213l-.0018-.0004c-.5963-2.4614-1.3528-4.8812-2.5305-7.0963l-1.3701-3.8994c-1.5983-4.524-3.3983-9.4762-5.5156-14.4781 2.9436-1.012 5.6031-1.329 7.9014-.9379.4023.0708 2.8779 1.5439 2.6855 3.2061-.0938.8184-.3555 1.6025-.6328 2.4331-.1201.3599-.2393.7197-.3496 1.0947-.3018 1.1353-.5332 2.2979-.6846 3.4463-.248 1.6396-.5293 3.4985-.0029 5.2612.1279.4209.3682.7725.5811 1.083.251.3662.4678.6826.4639 1.0283-.0029.2764.2188.502.4951.5049h.0049c.2734 0 .4971-.2207.5-.4951.0068-.6602-.3359-1.1611-.6387-1.6025-.1885-.2754-.3662-.5352-.4482-.8076-.4619-1.5459-.1992-3.2866.0352-4.832.1475-1.1152.3701-2.2354.6572-3.3169.1035-.3516.2197-.6997.3359-1.0479.2812-.8423.5713-1.7139.6777-2.6348.2666-2.3145-2.6699-4.1641-3.5117-4.3071-2.4785-.4194-5.3174-.0869-8.4385.9927-.0078.0027-.0128.0089-.0204.012-1.317-3.056-2.7546-6.1224-4.3488-9.114-3.4951-6.5605-7.7822-12.8384-11.5645-18.3765-5.0586-7.4126-10.791-15.814-18.8213-21.481l-1.9473-1.0015c-.709-.436-1.4795-.7554-2.2969-.9517-.4531-.1016-.9326-.0947-1.3818.0181-.4521.1143-.876.3354-1.2754.6875-.1211.1377-.251.2666-.3545.3594-.1543.1118-.4033.1489-.667.1885-.3809.0571-.8125.1216-1.1748.4238-.2334.1938-.373.4321-.4951.6426-.0547.0928-.1074.1855-.1611.2563-.2285.2793-.6289.4297-1.0518.5889-.5049.1904-1.0771.4058-1.4727.8965-.1113.1382-.2021.2939-.292.4502-.1035.1826-.1943.3403-.2686.3936-.1602.0889-.333.1484-.5137.1768-.041.0068-.0811.0181-.1191.0342-.0654.0278-1.6104.7002-1.9922 1.9922l-.0312.1094c-.1631.5493-.3623 1.2261.0674 1.8433-1.6328 2.79-3.6924 5.373-5.6855 7.8716-1.1592 1.4536-2.3584 2.9565-3.4668 4.4917l-.8174 1.125c-2.5615 3.5166-5.21 7.1528-6.7188 11.2988-2.6582 7.3018-21.4575 38.6548-30.7412 50.4478-1.3857 1.7656-2.9561 3.7676-3.1055 6.1582-.085 1.3682.3086 2.707.7183 3.958 3.1035 9.6152 13.9634 29.1094 14.0781 29.3145 3.4771 5.915 7.0723 12.0322 11.9438 17.0781.54.5596 1.0957 1.1055 1.6504 1.6504 1.1797 1.1592 2.3994 2.3574 3.4277 3.6689.8496 1.0859 1.5879 2.3037 2.3018 3.4814.9355 1.5439 1.9033 3.1416 3.1553 4.5088 4.6191 5.0439 16.1523 8.3066 16.5645 8.3066h46.124c.6582-.001 1.3164-.0566 1.958-.1641l3.292-.5605c1.2832-.2188 2.4824-.7002 3.5645-1.4307 5.1602-3.4795 9.4248-8.0654 13.5488-12.5 3.3203-3.5664 7.8672-8.4512 8.5498-14.3975.416-3.6562-.6689-7.3057-1.7178-10.4395-2.4919-7.4178-5.7084-14.6204-9.5517-21.4355.0493-.0597.0901-.1271.1074-.2081 1.6514-7.6514 3.0088-12.2129 5.8506-15.915.6123-.7979 1.126-1.5527 1.623-2.2822 1.1191-1.6436 2.1758-3.1953 4.1826-4.9922.0666-.0596.1058-.135.1324-.2143.6527-.4952 1.2842-1.0408 1.8686-1.6558.5987-.6631.9375-1.5215.9532-2.417zm-92.9522-50.6704.8203-1.1279c1.0947-1.5161 2.2861-3.0098 3.4385-4.4541 1.9863-2.4902 4.0391-5.064 5.6943-7.8687.0605.0293.1211.0566.1836.0815.3379.1338.6943.1943 1.0527.1787.6006-.0259 1.2041-.0986 1.7803-.2144.9873-.1699 1.999-.0605 2.9121.3096.9746.4419 1.8408 1.3535 2.4375 2.5674.3801.7746.6384 1.6228.8607 2.4763-1.9664 2.5097-2.5325 5.7966-2.7963 8.4011-.0693.6851-.125 1.3716-.1797 2.0576-.1865 2.3159-.3623 4.5039-1.0498 6.6172-.7725 2.375-2.6084 5.1592-5.4463 5.8511-.4102.0986-.8379.1572-1.2646.2168-.4496.0624-.9047.1283-1.3474.2346-.0139.0002-.0263-.0056-.0403-.0042-.5156.0503-1.0225-.061-1.4727-.3164-.2412-.1362-.5459-.0527-.6816.1885-.1367.2402-.0527.5454.1875.6816.1242.0704.2522.1312.3823.1855-.0471.0364-.0962.0679-.1421.1074-.5583.4834-.9116 1.1412-1.1754 1.7197-3.5278-2.285-7.3275-4.1155-11.3125-5.4413.2292-.522.4271-.9985.5718-1.3961 1.4611-4.0129 4.0676-7.591 6.5871-11.0515zm53.152 60.1997c-3.6936-3.3368-7.474-8.6211-7.9733-12.8623-.328-2.8026.5267-6.3259 2.2296-9.4008 3.8517 7.891 5.7755 15.351 5.7437 22.2631zm-1.8879 13.3513c-.4868-.7266-.3073-1.8132-.144-2.4216.0684-.252.1465-.5029.2256-.7539.2461-.7871.501-1.6016.4541-2.4766-.0137-.2754-.2539-.4932-.5254-.4727-.2754.0146-.4873.25-.4727.5254.0361.6953-.1807 1.3906-.4111 2.126-.082.2637-.165.5273-.2354.792-.17.629-.2891 1.4127-.156 2.1593-.253-.1229-.4814-.2454-.6379-.3634-.9463-.7354-1.6318-1.7822-1.9326-2.9541-.1729-.6348-.1826-1.3057-.0303-1.9316.2539-.957.9941-1.7637 1.6689-2.4453 1.1154-1.1332 2.2548-2.6447 2.5353-5.2215.5051.4969 1.0129.9614 1.516 1.3878-.0273.6701-.0674 1.3365-.1323 1.9958-.1416 1.4551-.123 2.9258.0547 4.373.2097 1.7154.4853 4.2739.5657 6.4233-.623-.1724-1.5129-.4418-2.3426-.7419zm-7.0785-26.0974c.4456 3.7863 3.3179 8.316 6.5099 11.7253-.009.0335-.0242.0645-.0255.1009-.0938 2.7324-1.168 4.1875-2.3145 5.3525-.7646.7715-1.6064 1.6963-1.9258 2.9014-.1953.7988-.1836 1.6436.0322 2.4336.3535 1.3789 1.166 2.6172 2.291 3.4922.433.3266 1.1584.6528 1.9254.9422.0887.0681.1902.1135.2982.1135.002 0 .004-.001.006-.001 1.1061.3984 2.2255.7084 2.6458.8206.0031.8389-.0357 1.5694-.139 2.0887-.1641.832-.4326 1.6289-.7168 2.4727-.1406.416-.2812.833-.4082 1.252-.1289.4229-.2617 1.3643-.4629 2.79-.7197 5.1045-2.2178 15.7246-6.3213 20.668-2.0186 2.3916-4.6025 4.3066-7.4746 5.54-.9336.4072-1.9277.793-2.8809.6924-1.0303-.1133-1.9678-.7939-2.8408-1.4814-1.2715-1.0049-2.5312-2.085-3.748-3.1289-2.5957-2.2275-5.2803-4.5303-8.2969-6.2842-2.8721-1.668-6.3545-2.5762-9.6396-2.5762-1.0483 0-2.0767.0958-3.059.2862-.0897-.0342-.1866-.051-.2877-.0255l-.4116.097c-.1716-.0049-.3425-.0303-.5105-.0727-.8863-1.9584-5.3301-7.1507-10.0369-12.6484-4.4736-5.2266-9.0996-10.6309-9.9023-12.4404-.3721-.8379-.7568-1.7041-.7432-2.5869.0293-1.7363 1.5166-3.042 2.9541-4.3047.3711-.3262.7393-.6494 1.082-.9775 1.4277-1.3662 2.5215-3.0371 3.5791-4.6533 1.3398-2.0479 2.7256-4.165 3.7666-6.4678.8223-1.834 1.4248-3.7617 2.0068-5.625l.1777-.5703c2.4463-7.7866 5.4004-15.4922 8.7822-22.9033.212-.4658.4293-.9155.6848-1.3041.0562-.0283.11-.0635.1541-.1139.0547-.0632.0847-.1369.1026-.213.2045-.2499.4258-.4739.6953-.6254.7002-.396 1.5635-.3535 2.4814-.3081.583.0293 1.1865.0586 1.7832-.0229 1.3193-.1802 2.5332-.9902 3.332-2.2231.8047-1.2437 1.0488-2.7007.6855-3.9038l-.2588-2.5776c.21-2.4688.7588-4.8936 1.6318-7.2085.1836-.4927.3828-.9785.5938-1.4561.1123-.2529-.002-.5479-.2549-.6597-.251-.1108-.5488.0024-.6592.2554-.2188.4951-.4258.9995-.6162 1.5088-.9043 2.3999-1.4736 4.9146-1.6914 7.5659l.2773 2.7612c.2988 1.0161.0986 2.1719-.5479 3.1709-.6396.9878-1.5967 1.6353-2.6279 1.7759-.5029.0698-1.0352.0435-1.5986.0151-1.0186-.0498-2.0693-.103-3.0215.4355-.3107.1746-.566.4029-.7996.6528-1.1988-.9646-2.5255-1.7361-3.9617-2.29.1365-.3301.2609-.6693.4009-.9965.3135-.728.6123-1.3652 1.1006-1.7881.667-.5747 1.6055-.7051 2.5986-.8428.4482-.0625.9121-.127 1.3623-.2358 2.75-.6704 5.0537-3.105 6.1621-6.5132.6025-1.8525.834-3.7905 1-5.6982 2.7695-1.0107 5.6514-1.7178 8.5674-2.1021.8535-.1108 1.8262-.1953 2.5596.2158.0391.022.082.0386.126.0493.3418.083.6562.2324.9355.4438.2812.2129.5117.4756.6807.7729.9463 1.751 2.0283 3.4644 3.1748 5.2783 1.6899 2.6765 3.4138 5.4427 4.6841 8.3315.174.4958.3425.9842.4995 1.4556.0319.0954.095.1688.168.2271.3233.9243.6122 1.8655.8759 2.7935.2686.9424.5459 1.9175.877 2.8638 1.0078 2.876 2.5371 5.5498 4.0156 8.1357.3633.6338.7256 1.2676 1.0811 1.9048.5364.9603 1.0355 1.9125 1.5168 2.8608-2.0238 3.3805-3.0543 7.4057-2.6816 10.5868zm-40.0774-26.8168c1.3555.5218 2.6074 1.2511 3.7361 2.1644-.2408.3954-.4566.8172-.6578 1.2593-3.3984 7.4478-6.3682 15.1924-8.8262 23.019l-.1777.5703c-.5742 1.8359-1.167 3.7354-1.9639 5.5137-1.0098 2.2295-2.373 4.3145-3.6924 6.3311-1.0264 1.5684-2.0889 3.1904-3.4336 4.4775-.333.3193-.6904.6328-1.0508.9492-1.5264 1.3408-3.2568 2.8594-3.2935 5.0391-.0171 1.1035.4321 2.1162.8286 3.0098.8623 1.9424 5.3281 7.1602 10.0566 12.6846 3.1535 3.6839 6.3763 7.4501 8.2869 9.9873-7.2209-7.1916-13.9783-14.9478-20.0916-23.0947-.4785-.6396-1.0205-1.3643-1.2549-2.1611-.6987-2.3662 1.2461-4.6982 2.9619-6.7549l.0771-.0928c7.04-8.4014 10.4717-19.085 13.7891-29.417 1.4399-4.4806 2.939-9.0811 4.7061-13.4848zm29.8859-12.877c-1.1367-1.7993-2.21-3.4985-3.1445-5.228-.2412-.4253-.5615-.791-.9521-1.0869-.3711-.2808-.7871-.4824-1.2373-.6011-.9824-.5215-2.1211-.4307-3.1172-.3018-2.8369.374-5.6426 1.0459-8.3467 1.9985.001-.0176.0029-.0356.0039-.0532.0547-.6792.1094-1.3589.1777-2.0371.1179-1.1622.3035-2.4666.6473-3.7628.7389.3803 1.6398.7454 2.5881.5983 1.0811-.168 1.833-.9048 2.5605-1.6177.4541-.4458.8848-.8672 1.375-1.1392.3584-.1963.7451-.314 1.1484-.3501.4043-.0352.8066.0117 1.1934.1426.4443.1489 1.7207 1.7495 2.624 3.1055 1.7849 3.3578 3.813 7.7773 5.6077 12.1334-.3753-.6038-.7525-1.2058-1.1282-1.8004zm-37.3544 122.5405c-1.1855-1.2939-2.127-2.8486-3.0381-4.3516-.7285-1.2031-1.4824-2.4463-2.3691-3.5801-1.0684-1.3623-2.3115-2.584-3.5137-3.7646-.5488-.5391-1.0986-1.0791-1.6328-1.6328-4.7881-4.96-8.353-11.0244-11.7949-16.8799-.1089-.1943-10.9209-19.6035-13.9951-29.126-.3955-1.21-.7446-2.3945-.6709-3.5869.1299-2.0811 1.5352-3.8711 2.9331-5.6523 8.7345-11.0963 25.123-38.1735 29.8691-48.3654 3.9957 1.32 7.8054 3.1565 11.334 5.4597-2.0469 4.8658-3.7093 10.0097-5.3101 14.9951-3.2891 10.2407-6.6895 20.8296-13.6045 29.0815l-.0781.0938c-1.7837 2.1387-4.0039 4.7988-3.1533 7.6777.2847.9697.9102 1.8057 1.4136 2.4785 6.5425 8.7178 13.8101 16.999 21.6021 24.6143.1549.1509.3349.2693.514.3876l-.9369.2208c-.2695.0635-.4355.332-.3721.6006.0537.2305.2588.3857.4863.3857.0371 0 .0762-.0039.1143-.0137l2.6521-.6251c.2402-.0052.48-.0223.7073-.079 3.8193-.7568 8.4336.0762 12.041 2.1709 2.9375 1.708 5.5859 3.9805 8.1475 6.1777 1.1411.9791 2.3217 1.9853 3.5193 2.9418-5.7221 8.6407-9.6646 18.1763-11.7109 28.3565l-7.2751.0005c-.6828-.1074-11.6399-3.3574-15.8781-7.9853zm67.0332 7.2715-3.291.5605c-.5859.0986-1.1895.1494-1.792.1504l-37.7727.0024c2.0271-9.9527 5.8883-19.2789 11.4776-27.7383.8412.6231 1.7556 1.1691 2.8205 1.2858.1465.0156.292.0234.4365.0234 1.0391 0 2.0254-.3887 2.9512-.793 1.5538-.6666 3.0252-1.5275 4.3792-2.547 1.0757 2.6854 2.644 5.1423 4.1774 7.5157 4.6779 7.229 10.4781 16.1651 19.1944 20.6238-.8036.449-1.6668.7608-2.5811.9163zm24.8369-27.4551c-.5957 5.1963-4.1055 9.3379-8.2881 13.8291-3.9833 4.2841-8.1044 8.7012-13.0009 12.0859-8.765-4.2393-14.6168-13.2719-19.3214-20.5429-1.5596-2.4139-3.1668-4.9105-4.2053-7.6118.9583-.7967 1.8482-1.6765 2.6526-2.6294.1653-.1991.319-.4211.4761-.6363.8302.9268 1.6171 1.9044 2.3266 2.9293.0967.1406.2529.2158.4111.2158.0986 0 .1973-.0283.2842-.0889.2275-.1572.2842-.4688.127-.6953-.7806-1.1284-1.6464-2.2068-2.5678-3.2172.5085-.808.9716-1.695 1.3929-2.6417 1.0726.767 2.2125 1.4426 3.4005 1.9995.0684.0322.1406.0469.2119.0469.1875 0 .3682-.1064.4531-.2881.1172-.25.0088-.5479-.2412-.665-1.1768-.5518-2.3105-1.2207-3.3682-1.9883-.0188-.0137-.041-.0173-.061-.028 1.7882-4.4325 2.7653-9.8264 3.3559-13.7413 2.0131 3.8072 6.3875 8.0264 7.7676 9.3054 2.8857 2.6738 7.2148 5.6895 12.0527 5.6895.4951 0 .9961-.0312 1.501-.0977.8066-.0801 1.5762-.3184 2.3145-.7256.8721-.5566 1.5674-1.3467 2.0039-2.2676 1.5713-3.0488 1.0205-6.5352.4883-9.9062-.0859-.542-.1709-1.0801-.2461-1.6133-.0381-.2734-.2871-.46-.5654-.4248-.2734.0391-.4639.292-.4248.5654.0762.5371.1621 1.0811.248 1.6279.5078 3.2129 1.0322 6.5352-.3965 9.3076-.3633.7666-.9316 1.4121-1.6172 1.8506-.5908.3262-1.2314.5244-1.9189.5918-5.0723.6719-9.7363-2.5293-12.7598-5.332-1.4561-1.3486-6.335-6.0498-7.9766-9.8896-.0487-.1145-.1379-.196-.2412-.2469.0396-.2775.0787-.5535.1143-.8058.1807-1.2793.3232-2.29.4297-2.6396.124-.4102.2607-.8164.3984-1.2227.2822-.8369.5742-1.7021.75-2.5977.0746-.3741.1201-.8381.1423-1.3667.2925.4616.6648.9221 1.1731 1.439.0977.0996.2275.1494.3564.1494.127 0 .2529-.0479.3506-.1436.1973-.1934.1992-.5098.0059-.707-1.375-1.3984-1.6689-2.2422-1.9043-4.2334-.0093-.0792-.0408-.1495-.0822-.2128-.1138-1.6035-.2958-3.3015-.4784-4.794-.1689-1.375-.1865-2.7734-.0508-4.1543.8078-8.2097-1.2305-17.2204-6.0433-26.8232-.0157-.0953-.0607-.1808-.1282-.2537-.5027-.9941-1.0251-1.9923-1.5873-2.9988-.3574-.6401-.7217-1.2769-1.0859-1.9141-1.4561-2.5469-2.9629-5.1807-3.9404-7.9697-.3213-.918-.5938-1.8784-.8584-2.8066-.3682-1.2983-.75-2.6406-1.2764-3.9224-.0912-.2221-.2047-.4363-.3013-.6566-2.1696-6.1721-5.5659-14.0288-8.3881-19.3337-.4971-.7485-2.1943-3.2168-3.1641-3.542-.5166-.1748-1.0547-.2407-1.5996-.1909-.543.0483-1.0615.2065-1.543.4702-.6113.3394-1.1104.8281-1.5928 1.3013-.6426.6299-1.25 1.2246-2.0156 1.3438-.6803.1052-1.3787-.1885-2.136-.5884.2956-.8725.6774-1.7217 1.1848-2.5036.0912.2261.3273.3629.5743.3029.2686-.0649.4326-.3354.3682-.604l-.0449-.1821c-.2988-1.2354-.6084-2.5122-1.1885-3.6919-.4941-1.0054-1.4023-2.3481-2.9395-3.0449-1.1035-.4482-2.3057-.5796-3.4893-.3735-.5391.1079-1.0918.1743-1.6406.1982-.2207.0088-.4355-.0278-.6396-.1089-.2041-.0815-.3867-.2041-.5166-.334-.1611-.1934-.083-.5088.0635-1.0054l.0322-.1108c.1953-.6611 1.0156-1.1631 1.376-1.3315.2725-.0508.5361-.146.8125-.3022.3047-.2065.4688-.4941.6143-.7485.0625-.1099.124-.2217.2021-.3188.2236-.2778.623-.4282 1.0459-.5874.5039-.1895 1.0742-.4043 1.4824-.9033.0889-.1152.165-.2437.2412-.3735.0889-.1523.1729-.2959.2715-.3779.1484-.124.3965-.1611.6826-.2036.3545-.0532.7559-.1133 1.1416-.3965.1709-.1484.332-.3086.4355-.4316.2334-.2036.5166-.3511.8164-.4268.3008-.0747.6172-.0791.9121-.0137.707.1699 1.3799.4487 2.0322.8477l1.9209.9839c7.8223 5.5273 13.501 13.8496 18.5117 21.1924 3.7686 5.5171 8.0391 11.7705 11.5078 18.2827 4.334 8.1323 7.5342 16.8462 10.1934 24.3745l1.4004 3.9668c1.8252 3.4443 2.6221 7.3887 3.3926 11.2031.583 2.8887 1.1865 5.876 2.2334 8.6816 1.167 3.0996 2.8594 5.9854 4.4961 8.7754.3555.6055.71 1.21 1.0596 1.8164 4.0361 7.0186 7.3906 14.4697 9.9697 22.1484 1.0157 3.031 2.0646 6.5545 1.672 10.0076z"></path></g></svg>